<mxfile host="app.diagrams.net" agent="Mozilla/5.0 (Windows NT 10.0; Win64; x64) AppleWebKit/537.36 (KHTML, like Gecko) Chrome/140.0.0.0 Safari/537.36" version="28.2.5">
  <diagram name="PÃ¡gina-1" id="4aVacl7Rp2dja2U3p4jw">
    <mxGraphModel dx="-228" dy="1912" grid="0" gridSize="10" guides="1" tooltips="1" connect="1" arrows="1" fold="1" page="1" pageScale="1" pageWidth="827" pageHeight="1169" math="0" shadow="0">
      <root>
        <mxCell id="0" />
        <mxCell id="1" parent="0" />
        <mxCell id="SOTbb2QjoNHOY58TmjV8-1" value="Usuario" style="shape=table;startSize=30;container=1;collapsible=1;childLayout=tableLayout;fixedRows=1;rowLines=0;fontStyle=1;align=center;resizeLast=1;html=1;fillColor=#d5e8d4;strokeColor=#82b366;" parent="1" vertex="1">
          <mxGeometry x="2108" y="741.0000000000002" width="180" height="390" as="geometry" />
        </mxCell>
        <mxCell id="SOTbb2QjoNHOY58TmjV8-2" value="" style="shape=tableRow;horizontal=0;startSize=0;swimlaneHead=0;swimlaneBody=0;collapsible=0;dropTarget=0;points=[[0,0.5],[1,0.5]];portConstraint=eastwest;top=0;left=0;right=0;bottom=1;fillColor=none;" parent="SOTbb2QjoNHOY58TmjV8-1" vertex="1">
          <mxGeometry y="30" width="180" height="30" as="geometry" />
        </mxCell>
        <mxCell id="SOTbb2QjoNHOY58TmjV8-3" value="PK" style="shape=partialRectangle;connectable=0;top=0;left=0;bottom=0;right=0;fontStyle=1;overflow=hidden;whiteSpace=wrap;html=1;fillColor=none;" parent="SOTbb2QjoNHOY58TmjV8-2" vertex="1">
          <mxGeometry width="30" height="30" as="geometry">
            <mxRectangle width="30" height="30" as="alternateBounds" />
          </mxGeometry>
        </mxCell>
        <mxCell id="SOTbb2QjoNHOY58TmjV8-4" value="usu_id" style="shape=partialRectangle;connectable=0;top=0;left=0;bottom=0;right=0;align=left;spacingLeft=6;fontStyle=5;overflow=hidden;whiteSpace=wrap;html=1;fillColor=none;" parent="SOTbb2QjoNHOY58TmjV8-2" vertex="1">
          <mxGeometry x="30" width="150" height="30" as="geometry">
            <mxRectangle width="150" height="30" as="alternateBounds" />
          </mxGeometry>
        </mxCell>
        <mxCell id="SOTbb2QjoNHOY58TmjV8-14" value="" style="shape=tableRow;horizontal=0;startSize=0;swimlaneHead=0;swimlaneBody=0;collapsible=0;dropTarget=0;points=[[0,0.5],[1,0.5]];portConstraint=eastwest;top=0;left=0;right=0;bottom=0;fillColor=none;" parent="SOTbb2QjoNHOY58TmjV8-1" vertex="1">
          <mxGeometry y="60" width="180" height="30" as="geometry" />
        </mxCell>
        <mxCell id="SOTbb2QjoNHOY58TmjV8-15" value="" style="shape=partialRectangle;connectable=0;top=0;left=0;bottom=0;right=0;editable=1;overflow=hidden;whiteSpace=wrap;html=1;fillColor=none;" parent="SOTbb2QjoNHOY58TmjV8-14" vertex="1">
          <mxGeometry width="30" height="30" as="geometry">
            <mxRectangle width="30" height="30" as="alternateBounds" />
          </mxGeometry>
        </mxCell>
        <mxCell id="SOTbb2QjoNHOY58TmjV8-16" value="&lt;b&gt;usu_nome&lt;/b&gt;" style="shape=partialRectangle;connectable=0;top=0;left=0;bottom=0;right=0;align=left;spacingLeft=6;overflow=hidden;whiteSpace=wrap;html=1;fillColor=none;" parent="SOTbb2QjoNHOY58TmjV8-14" vertex="1">
          <mxGeometry x="30" width="150" height="30" as="geometry">
            <mxRectangle width="150" height="30" as="alternateBounds" />
          </mxGeometry>
        </mxCell>
        <mxCell id="hAWk6UTnpg3BsMGyecMC-1" value="" style="shape=tableRow;horizontal=0;startSize=0;swimlaneHead=0;swimlaneBody=0;fillColor=none;collapsible=0;dropTarget=0;points=[[0,0.5],[1,0.5]];portConstraint=eastwest;top=0;left=0;right=0;bottom=0;" parent="SOTbb2QjoNHOY58TmjV8-1" vertex="1">
          <mxGeometry y="90" width="180" height="30" as="geometry" />
        </mxCell>
        <mxCell id="hAWk6UTnpg3BsMGyecMC-2" value="" style="shape=partialRectangle;connectable=0;fillColor=none;top=0;left=0;bottom=0;right=0;editable=1;overflow=hidden;" parent="hAWk6UTnpg3BsMGyecMC-1" vertex="1">
          <mxGeometry width="30" height="30" as="geometry">
            <mxRectangle width="30" height="30" as="alternateBounds" />
          </mxGeometry>
        </mxCell>
        <mxCell id="hAWk6UTnpg3BsMGyecMC-3" value="usu_documento" style="shape=partialRectangle;connectable=0;fillColor=none;top=0;left=0;bottom=0;right=0;align=left;spacingLeft=6;overflow=hidden;fontStyle=1" parent="hAWk6UTnpg3BsMGyecMC-1" vertex="1">
          <mxGeometry x="30" width="150" height="30" as="geometry">
            <mxRectangle width="150" height="30" as="alternateBounds" />
          </mxGeometry>
        </mxCell>
        <mxCell id="SOTbb2QjoNHOY58TmjV8-17" value="" style="shape=tableRow;horizontal=0;startSize=0;swimlaneHead=0;swimlaneBody=0;collapsible=0;dropTarget=0;points=[[0,0.5],[1,0.5]];portConstraint=eastwest;top=0;left=0;right=0;bottom=0;fillColor=none;" parent="SOTbb2QjoNHOY58TmjV8-1" vertex="1">
          <mxGeometry y="120" width="180" height="30" as="geometry" />
        </mxCell>
        <mxCell id="SOTbb2QjoNHOY58TmjV8-18" value="" style="shape=partialRectangle;connectable=0;top=0;left=0;bottom=0;right=0;editable=1;overflow=hidden;whiteSpace=wrap;html=1;fillColor=none;" parent="SOTbb2QjoNHOY58TmjV8-17" vertex="1">
          <mxGeometry width="30" height="30" as="geometry">
            <mxRectangle width="30" height="30" as="alternateBounds" />
          </mxGeometry>
        </mxCell>
        <mxCell id="SOTbb2QjoNHOY58TmjV8-19" value="usu_email" style="shape=partialRectangle;connectable=0;top=0;left=0;bottom=0;right=0;align=left;spacingLeft=6;overflow=hidden;whiteSpace=wrap;html=1;fillColor=none;fontStyle=1" parent="SOTbb2QjoNHOY58TmjV8-17" vertex="1">
          <mxGeometry x="30" width="150" height="30" as="geometry">
            <mxRectangle width="150" height="30" as="alternateBounds" />
          </mxGeometry>
        </mxCell>
        <mxCell id="SOTbb2QjoNHOY58TmjV8-20" value="" style="shape=tableRow;horizontal=0;startSize=0;swimlaneHead=0;swimlaneBody=0;collapsible=0;dropTarget=0;points=[[0,0.5],[1,0.5]];portConstraint=eastwest;top=0;left=0;right=0;bottom=0;fillColor=none;" parent="SOTbb2QjoNHOY58TmjV8-1" vertex="1">
          <mxGeometry y="150" width="180" height="30" as="geometry" />
        </mxCell>
        <mxCell id="SOTbb2QjoNHOY58TmjV8-21" value="" style="shape=partialRectangle;connectable=0;top=0;left=0;bottom=0;right=0;editable=1;overflow=hidden;whiteSpace=wrap;html=1;fillColor=none;" parent="SOTbb2QjoNHOY58TmjV8-20" vertex="1">
          <mxGeometry width="30" height="30" as="geometry">
            <mxRectangle width="30" height="30" as="alternateBounds" />
          </mxGeometry>
        </mxCell>
        <mxCell id="SOTbb2QjoNHOY58TmjV8-22" value="usu_senha" style="shape=partialRectangle;connectable=0;top=0;left=0;bottom=0;right=0;align=left;spacingLeft=6;overflow=hidden;whiteSpace=wrap;html=1;fillColor=none;fontStyle=1" parent="SOTbb2QjoNHOY58TmjV8-20" vertex="1">
          <mxGeometry x="30" width="150" height="30" as="geometry">
            <mxRectangle width="150" height="30" as="alternateBounds" />
          </mxGeometry>
        </mxCell>
        <mxCell id="SOTbb2QjoNHOY58TmjV8-23" value="" style="shape=tableRow;horizontal=0;startSize=0;swimlaneHead=0;swimlaneBody=0;collapsible=0;dropTarget=0;points=[[0,0.5],[1,0.5]];portConstraint=eastwest;top=0;left=0;right=0;bottom=0;fillColor=none;" parent="SOTbb2QjoNHOY58TmjV8-1" vertex="1">
          <mxGeometry y="180" width="180" height="30" as="geometry" />
        </mxCell>
        <mxCell id="SOTbb2QjoNHOY58TmjV8-24" value="" style="shape=partialRectangle;connectable=0;top=0;left=0;bottom=0;right=0;editable=1;overflow=hidden;fillColor=none;" parent="SOTbb2QjoNHOY58TmjV8-23" vertex="1">
          <mxGeometry width="30" height="30" as="geometry">
            <mxRectangle width="30" height="30" as="alternateBounds" />
          </mxGeometry>
        </mxCell>
        <mxCell id="SOTbb2QjoNHOY58TmjV8-25" value="usu_datacriacao" style="shape=partialRectangle;connectable=0;top=0;left=0;bottom=0;right=0;align=left;spacingLeft=6;overflow=hidden;fillColor=none;fontStyle=1" parent="SOTbb2QjoNHOY58TmjV8-23" vertex="1">
          <mxGeometry x="30" width="150" height="30" as="geometry">
            <mxRectangle width="150" height="30" as="alternateBounds" />
          </mxGeometry>
        </mxCell>
        <mxCell id="SOTbb2QjoNHOY58TmjV8-26" value="" style="shape=tableRow;horizontal=0;startSize=0;swimlaneHead=0;swimlaneBody=0;collapsible=0;dropTarget=0;points=[[0,0.5],[1,0.5]];portConstraint=eastwest;top=0;left=0;right=0;bottom=0;fillColor=none;" parent="SOTbb2QjoNHOY58TmjV8-1" vertex="1">
          <mxGeometry y="210" width="180" height="30" as="geometry" />
        </mxCell>
        <mxCell id="SOTbb2QjoNHOY58TmjV8-27" value="FK" style="shape=partialRectangle;connectable=0;top=0;left=0;bottom=0;right=0;editable=1;overflow=hidden;fillColor=none;fontStyle=1" parent="SOTbb2QjoNHOY58TmjV8-26" vertex="1">
          <mxGeometry width="30" height="30" as="geometry">
            <mxRectangle width="30" height="30" as="alternateBounds" />
          </mxGeometry>
        </mxCell>
        <mxCell id="SOTbb2QjoNHOY58TmjV8-28" value="inst_id" style="shape=partialRectangle;connectable=0;top=0;left=0;bottom=0;right=0;align=left;spacingLeft=6;overflow=hidden;fillColor=none;fontStyle=1" parent="SOTbb2QjoNHOY58TmjV8-26" vertex="1">
          <mxGeometry x="30" width="150" height="30" as="geometry">
            <mxRectangle width="150" height="30" as="alternateBounds" />
          </mxGeometry>
        </mxCell>
        <mxCell id="SOTbb2QjoNHOY58TmjV8-29" value="" style="shape=tableRow;horizontal=0;startSize=0;swimlaneHead=0;swimlaneBody=0;collapsible=0;dropTarget=0;points=[[0,0.5],[1,0.5]];portConstraint=eastwest;top=0;left=0;right=0;bottom=0;fillColor=none;" parent="SOTbb2QjoNHOY58TmjV8-1" vertex="1">
          <mxGeometry y="240" width="180" height="30" as="geometry" />
        </mxCell>
        <mxCell id="SOTbb2QjoNHOY58TmjV8-30" value="" style="shape=partialRectangle;connectable=0;top=0;left=0;bottom=0;right=0;editable=1;overflow=hidden;fillColor=none;" parent="SOTbb2QjoNHOY58TmjV8-29" vertex="1">
          <mxGeometry width="30" height="30" as="geometry">
            <mxRectangle width="30" height="30" as="alternateBounds" />
          </mxGeometry>
        </mxCell>
        <mxCell id="SOTbb2QjoNHOY58TmjV8-31" value="usu_telefone" style="shape=partialRectangle;connectable=0;top=0;left=0;bottom=0;right=0;align=left;spacingLeft=6;overflow=hidden;fillColor=none;fontStyle=1" parent="SOTbb2QjoNHOY58TmjV8-29" vertex="1">
          <mxGeometry x="30" width="150" height="30" as="geometry">
            <mxRectangle width="150" height="30" as="alternateBounds" />
          </mxGeometry>
        </mxCell>
        <mxCell id="SOTbb2QjoNHOY58TmjV8-32" value="" style="shape=tableRow;horizontal=0;startSize=0;swimlaneHead=0;swimlaneBody=0;collapsible=0;dropTarget=0;points=[[0,0.5],[1,0.5]];portConstraint=eastwest;top=0;left=0;right=0;bottom=0;fillColor=none;" parent="SOTbb2QjoNHOY58TmjV8-1" vertex="1">
          <mxGeometry y="270" width="180" height="30" as="geometry" />
        </mxCell>
        <mxCell id="SOTbb2QjoNHOY58TmjV8-33" value="" style="shape=partialRectangle;connectable=0;top=0;left=0;bottom=0;right=0;editable=1;overflow=hidden;fillColor=none;" parent="SOTbb2QjoNHOY58TmjV8-32" vertex="1">
          <mxGeometry width="30" height="30" as="geometry">
            <mxRectangle width="30" height="30" as="alternateBounds" />
          </mxGeometry>
        </mxCell>
        <mxCell id="SOTbb2QjoNHOY58TmjV8-34" value="usu_foto" style="shape=partialRectangle;connectable=0;top=0;left=0;bottom=0;right=0;align=left;spacingLeft=6;overflow=hidden;fillColor=none;" parent="SOTbb2QjoNHOY58TmjV8-32" vertex="1">
          <mxGeometry x="30" width="150" height="30" as="geometry">
            <mxRectangle width="150" height="30" as="alternateBounds" />
          </mxGeometry>
        </mxCell>
        <mxCell id="SOTbb2QjoNHOY58TmjV8-35" value="" style="shape=tableRow;horizontal=0;startSize=0;swimlaneHead=0;swimlaneBody=0;collapsible=0;dropTarget=0;points=[[0,0.5],[1,0.5]];portConstraint=eastwest;top=0;left=0;right=0;bottom=0;fillColor=none;" parent="SOTbb2QjoNHOY58TmjV8-1" vertex="1">
          <mxGeometry y="300" width="180" height="30" as="geometry" />
        </mxCell>
        <mxCell id="SOTbb2QjoNHOY58TmjV8-36" value="" style="shape=partialRectangle;connectable=0;top=0;left=0;bottom=0;right=0;editable=1;overflow=hidden;fillColor=none;" parent="SOTbb2QjoNHOY58TmjV8-35" vertex="1">
          <mxGeometry width="30" height="30" as="geometry">
            <mxRectangle width="30" height="30" as="alternateBounds" />
          </mxGeometry>
        </mxCell>
        <mxCell id="SOTbb2QjoNHOY58TmjV8-37" value="usu_biometria" style="shape=partialRectangle;connectable=0;top=0;left=0;bottom=0;right=0;align=left;spacingLeft=6;overflow=hidden;fillColor=none;" parent="SOTbb2QjoNHOY58TmjV8-35" vertex="1">
          <mxGeometry x="30" width="150" height="30" as="geometry">
            <mxRectangle width="150" height="30" as="alternateBounds" />
          </mxGeometry>
        </mxCell>
        <mxCell id="hAWk6UTnpg3BsMGyecMC-7" value="" style="shape=tableRow;horizontal=0;startSize=0;swimlaneHead=0;swimlaneBody=0;fillColor=none;collapsible=0;dropTarget=0;points=[[0,0.5],[1,0.5]];portConstraint=eastwest;top=0;left=0;right=0;bottom=0;" parent="SOTbb2QjoNHOY58TmjV8-1" vertex="1">
          <mxGeometry y="330" width="180" height="30" as="geometry" />
        </mxCell>
        <mxCell id="hAWk6UTnpg3BsMGyecMC-8" value="" style="shape=partialRectangle;connectable=0;fillColor=none;top=0;left=0;bottom=0;right=0;editable=1;overflow=hidden;" parent="hAWk6UTnpg3BsMGyecMC-7" vertex="1">
          <mxGeometry width="30" height="30" as="geometry">
            <mxRectangle width="30" height="30" as="alternateBounds" />
          </mxGeometry>
        </mxCell>
        <mxCell id="hAWk6UTnpg3BsMGyecMC-9" value="usu_tipo" style="shape=partialRectangle;connectable=0;fillColor=none;top=0;left=0;bottom=0;right=0;align=left;spacingLeft=6;overflow=hidden;fontStyle=1" parent="hAWk6UTnpg3BsMGyecMC-7" vertex="1">
          <mxGeometry x="30" width="150" height="30" as="geometry">
            <mxRectangle width="150" height="30" as="alternateBounds" />
          </mxGeometry>
        </mxCell>
        <mxCell id="SOTbb2QjoNHOY58TmjV8-38" value="" style="shape=tableRow;horizontal=0;startSize=0;swimlaneHead=0;swimlaneBody=0;collapsible=0;dropTarget=0;points=[[0,0.5],[1,0.5]];portConstraint=eastwest;top=0;left=0;right=0;bottom=0;fillColor=none;" parent="SOTbb2QjoNHOY58TmjV8-1" vertex="1">
          <mxGeometry y="360" width="180" height="30" as="geometry" />
        </mxCell>
        <mxCell id="SOTbb2QjoNHOY58TmjV8-39" value="" style="shape=partialRectangle;connectable=0;top=0;left=0;bottom=0;right=0;editable=1;overflow=hidden;fillColor=none;" parent="SOTbb2QjoNHOY58TmjV8-38" vertex="1">
          <mxGeometry width="30" height="30" as="geometry">
            <mxRectangle width="30" height="30" as="alternateBounds" />
          </mxGeometry>
        </mxCell>
        <mxCell id="SOTbb2QjoNHOY58TmjV8-40" value="usu_status" style="shape=partialRectangle;connectable=0;top=0;left=0;bottom=0;right=0;align=left;spacingLeft=6;overflow=hidden;fillColor=none;fontStyle=1" parent="SOTbb2QjoNHOY58TmjV8-38" vertex="1">
          <mxGeometry x="30" width="150" height="30" as="geometry">
            <mxRectangle width="150" height="30" as="alternateBounds" />
          </mxGeometry>
        </mxCell>
        <mxCell id="SOTbb2QjoNHOY58TmjV8-41" value="Paciente" style="shape=table;startSize=30;container=1;collapsible=1;childLayout=tableLayout;fixedRows=1;rowLines=0;fontStyle=1;align=center;resizeLast=1;html=1;fillColor=#d5e8d4;strokeColor=#82b366;" parent="1" vertex="1">
          <mxGeometry x="1802" y="-234.99999999999977" width="180" height="390" as="geometry" />
        </mxCell>
        <mxCell id="SOTbb2QjoNHOY58TmjV8-42" value="" style="shape=tableRow;horizontal=0;startSize=0;swimlaneHead=0;swimlaneBody=0;collapsible=0;dropTarget=0;points=[[0,0.5],[1,0.5]];portConstraint=eastwest;top=0;left=0;right=0;bottom=1;fillColor=none;strokeColor=default;" parent="SOTbb2QjoNHOY58TmjV8-41" vertex="1">
          <mxGeometry y="30" width="180" height="30" as="geometry" />
        </mxCell>
        <mxCell id="SOTbb2QjoNHOY58TmjV8-43" value="PK" style="shape=partialRectangle;connectable=0;top=0;left=0;bottom=0;right=0;fontStyle=1;overflow=hidden;whiteSpace=wrap;html=1;fillColor=none;strokeColor=default;" parent="SOTbb2QjoNHOY58TmjV8-42" vertex="1">
          <mxGeometry width="30" height="30" as="geometry">
            <mxRectangle width="30" height="30" as="alternateBounds" />
          </mxGeometry>
        </mxCell>
        <mxCell id="SOTbb2QjoNHOY58TmjV8-44" value="pac_id" style="shape=partialRectangle;connectable=0;top=0;left=0;bottom=0;right=0;align=left;spacingLeft=6;fontStyle=5;overflow=hidden;whiteSpace=wrap;html=1;fillColor=none;strokeColor=default;" parent="SOTbb2QjoNHOY58TmjV8-42" vertex="1">
          <mxGeometry x="30" width="150" height="30" as="geometry">
            <mxRectangle width="150" height="30" as="alternateBounds" />
          </mxGeometry>
        </mxCell>
        <mxCell id="SOTbb2QjoNHOY58TmjV8-48" value="" style="shape=tableRow;horizontal=0;startSize=0;swimlaneHead=0;swimlaneBody=0;collapsible=0;dropTarget=0;points=[[0,0.5],[1,0.5]];portConstraint=eastwest;top=0;left=0;right=0;bottom=0;fillColor=none;strokeColor=default;" parent="SOTbb2QjoNHOY58TmjV8-41" vertex="1">
          <mxGeometry y="60" width="180" height="30" as="geometry" />
        </mxCell>
        <mxCell id="SOTbb2QjoNHOY58TmjV8-49" value="" style="shape=partialRectangle;connectable=0;top=0;left=0;bottom=0;right=0;editable=1;overflow=hidden;whiteSpace=wrap;html=1;fillColor=none;strokeColor=default;" parent="SOTbb2QjoNHOY58TmjV8-48" vertex="1">
          <mxGeometry width="30" height="30" as="geometry">
            <mxRectangle width="30" height="30" as="alternateBounds" />
          </mxGeometry>
        </mxCell>
        <mxCell id="SOTbb2QjoNHOY58TmjV8-50" value="pac_nome" style="shape=partialRectangle;connectable=0;top=0;left=0;bottom=0;right=0;align=left;spacingLeft=6;overflow=hidden;whiteSpace=wrap;html=1;fillColor=none;strokeColor=default;fontStyle=1" parent="SOTbb2QjoNHOY58TmjV8-48" vertex="1">
          <mxGeometry x="30" width="150" height="30" as="geometry">
            <mxRectangle width="150" height="30" as="alternateBounds" />
          </mxGeometry>
        </mxCell>
        <mxCell id="SOTbb2QjoNHOY58TmjV8-51" value="" style="shape=tableRow;horizontal=0;startSize=0;swimlaneHead=0;swimlaneBody=0;collapsible=0;dropTarget=0;points=[[0,0.5],[1,0.5]];portConstraint=eastwest;top=0;left=0;right=0;bottom=0;fillColor=none;strokeColor=default;" parent="SOTbb2QjoNHOY58TmjV8-41" vertex="1">
          <mxGeometry y="90" width="180" height="30" as="geometry" />
        </mxCell>
        <mxCell id="SOTbb2QjoNHOY58TmjV8-52" value="" style="shape=partialRectangle;connectable=0;top=0;left=0;bottom=0;right=0;editable=1;overflow=hidden;whiteSpace=wrap;html=1;fillColor=none;strokeColor=default;" parent="SOTbb2QjoNHOY58TmjV8-51" vertex="1">
          <mxGeometry width="30" height="30" as="geometry">
            <mxRectangle width="30" height="30" as="alternateBounds" />
          </mxGeometry>
        </mxCell>
        <mxCell id="SOTbb2QjoNHOY58TmjV8-53" value="pac_datanasc" style="shape=partialRectangle;connectable=0;top=0;left=0;bottom=0;right=0;align=left;spacingLeft=6;overflow=hidden;whiteSpace=wrap;html=1;fillColor=none;strokeColor=default;fontStyle=1" parent="SOTbb2QjoNHOY58TmjV8-51" vertex="1">
          <mxGeometry x="30" width="150" height="30" as="geometry">
            <mxRectangle width="150" height="30" as="alternateBounds" />
          </mxGeometry>
        </mxCell>
        <mxCell id="SOTbb2QjoNHOY58TmjV8-54" value="" style="shape=tableRow;horizontal=0;startSize=0;swimlaneHead=0;swimlaneBody=0;collapsible=0;dropTarget=0;points=[[0,0.5],[1,0.5]];portConstraint=eastwest;top=0;left=0;right=0;bottom=0;fillColor=none;strokeColor=default;" parent="SOTbb2QjoNHOY58TmjV8-41" vertex="1">
          <mxGeometry y="120" width="180" height="30" as="geometry" />
        </mxCell>
        <mxCell id="SOTbb2QjoNHOY58TmjV8-55" value="" style="shape=partialRectangle;connectable=0;top=0;left=0;bottom=0;right=0;editable=1;overflow=hidden;whiteSpace=wrap;html=1;fillColor=none;strokeColor=default;" parent="SOTbb2QjoNHOY58TmjV8-54" vertex="1">
          <mxGeometry width="30" height="30" as="geometry">
            <mxRectangle width="30" height="30" as="alternateBounds" />
          </mxGeometry>
        </mxCell>
        <mxCell id="SOTbb2QjoNHOY58TmjV8-56" value="pac_cpf" style="shape=partialRectangle;connectable=0;top=0;left=0;bottom=0;right=0;align=left;spacingLeft=6;overflow=hidden;whiteSpace=wrap;html=1;fillColor=none;strokeColor=default;fontStyle=1" parent="SOTbb2QjoNHOY58TmjV8-54" vertex="1">
          <mxGeometry x="30" width="150" height="30" as="geometry">
            <mxRectangle width="150" height="30" as="alternateBounds" />
          </mxGeometry>
        </mxCell>
        <mxCell id="SOTbb2QjoNHOY58TmjV8-57" value="" style="shape=tableRow;horizontal=0;startSize=0;swimlaneHead=0;swimlaneBody=0;collapsible=0;dropTarget=0;points=[[0,0.5],[1,0.5]];portConstraint=eastwest;top=0;left=0;right=0;bottom=0;fillColor=none;strokeColor=default;" parent="SOTbb2QjoNHOY58TmjV8-41" vertex="1">
          <mxGeometry y="150" width="180" height="30" as="geometry" />
        </mxCell>
        <mxCell id="SOTbb2QjoNHOY58TmjV8-58" value="" style="shape=partialRectangle;connectable=0;top=0;left=0;bottom=0;right=0;editable=1;overflow=hidden;fillColor=none;strokeColor=default;" parent="SOTbb2QjoNHOY58TmjV8-57" vertex="1">
          <mxGeometry width="30" height="30" as="geometry">
            <mxRectangle width="30" height="30" as="alternateBounds" />
          </mxGeometry>
        </mxCell>
        <mxCell id="SOTbb2QjoNHOY58TmjV8-59" value="pac_telefone" style="shape=partialRectangle;connectable=0;top=0;left=0;bottom=0;right=0;align=left;spacingLeft=6;overflow=hidden;fillColor=none;strokeColor=default;fontStyle=1" parent="SOTbb2QjoNHOY58TmjV8-57" vertex="1">
          <mxGeometry x="30" width="150" height="30" as="geometry">
            <mxRectangle width="150" height="30" as="alternateBounds" />
          </mxGeometry>
        </mxCell>
        <mxCell id="_61jdk8e4AT1VANabuam-4" value="" style="shape=tableRow;horizontal=0;startSize=0;swimlaneHead=0;swimlaneBody=0;fillColor=none;collapsible=0;dropTarget=0;points=[[0,0.5],[1,0.5]];portConstraint=eastwest;top=0;left=0;right=0;bottom=0;" vertex="1" parent="SOTbb2QjoNHOY58TmjV8-41">
          <mxGeometry y="180" width="180" height="30" as="geometry" />
        </mxCell>
        <mxCell id="_61jdk8e4AT1VANabuam-5" value="" style="shape=partialRectangle;connectable=0;fillColor=none;top=0;left=0;bottom=0;right=0;editable=1;overflow=hidden;" vertex="1" parent="_61jdk8e4AT1VANabuam-4">
          <mxGeometry width="30" height="30" as="geometry">
            <mxRectangle width="30" height="30" as="alternateBounds" />
          </mxGeometry>
        </mxCell>
        <mxCell id="_61jdk8e4AT1VANabuam-6" value="pac_num_prontuario" style="shape=partialRectangle;connectable=0;fillColor=none;top=0;left=0;bottom=0;right=0;align=left;spacingLeft=6;overflow=hidden;fontStyle=1" vertex="1" parent="_61jdk8e4AT1VANabuam-4">
          <mxGeometry x="30" width="150" height="30" as="geometry">
            <mxRectangle width="150" height="30" as="alternateBounds" />
          </mxGeometry>
        </mxCell>
        <mxCell id="SOTbb2QjoNHOY58TmjV8-60" value="" style="shape=tableRow;horizontal=0;startSize=0;swimlaneHead=0;swimlaneBody=0;collapsible=0;dropTarget=0;points=[[0,0.5],[1,0.5]];portConstraint=eastwest;top=0;left=0;right=0;bottom=0;fillColor=none;strokeColor=default;" parent="SOTbb2QjoNHOY58TmjV8-41" vertex="1">
          <mxGeometry y="210" width="180" height="30" as="geometry" />
        </mxCell>
        <mxCell id="SOTbb2QjoNHOY58TmjV8-61" value="" style="shape=partialRectangle;connectable=0;top=0;left=0;bottom=0;right=0;editable=1;overflow=hidden;fillColor=none;strokeColor=default;" parent="SOTbb2QjoNHOY58TmjV8-60" vertex="1">
          <mxGeometry width="30" height="30" as="geometry">
            <mxRectangle width="30" height="30" as="alternateBounds" />
          </mxGeometry>
        </mxCell>
        <mxCell id="SOTbb2QjoNHOY58TmjV8-62" value="pac_datacadastro" style="shape=partialRectangle;connectable=0;top=0;left=0;bottom=0;right=0;align=left;spacingLeft=6;overflow=hidden;fillColor=none;strokeColor=default;fontStyle=1" parent="SOTbb2QjoNHOY58TmjV8-60" vertex="1">
          <mxGeometry x="30" width="150" height="30" as="geometry">
            <mxRectangle width="150" height="30" as="alternateBounds" />
          </mxGeometry>
        </mxCell>
        <mxCell id="_61jdk8e4AT1VANabuam-7" value="" style="shape=tableRow;horizontal=0;startSize=0;swimlaneHead=0;swimlaneBody=0;fillColor=none;collapsible=0;dropTarget=0;points=[[0,0.5],[1,0.5]];portConstraint=eastwest;top=0;left=0;right=0;bottom=0;" vertex="1" parent="SOTbb2QjoNHOY58TmjV8-41">
          <mxGeometry y="240" width="180" height="30" as="geometry" />
        </mxCell>
        <mxCell id="_61jdk8e4AT1VANabuam-8" value="" style="shape=partialRectangle;connectable=0;fillColor=none;top=0;left=0;bottom=0;right=0;editable=1;overflow=hidden;" vertex="1" parent="_61jdk8e4AT1VANabuam-7">
          <mxGeometry width="30" height="30" as="geometry">
            <mxRectangle width="30" height="30" as="alternateBounds" />
          </mxGeometry>
        </mxCell>
        <mxCell id="_61jdk8e4AT1VANabuam-9" value="pac_cns" style="shape=partialRectangle;connectable=0;fillColor=none;top=0;left=0;bottom=0;right=0;align=left;spacingLeft=6;overflow=hidden;fontStyle=1" vertex="1" parent="_61jdk8e4AT1VANabuam-7">
          <mxGeometry x="30" width="150" height="30" as="geometry">
            <mxRectangle width="150" height="30" as="alternateBounds" />
          </mxGeometry>
        </mxCell>
        <mxCell id="SOTbb2QjoNHOY58TmjV8-63" value="" style="shape=tableRow;horizontal=0;startSize=0;swimlaneHead=0;swimlaneBody=0;collapsible=0;dropTarget=0;points=[[0,0.5],[1,0.5]];portConstraint=eastwest;top=0;left=0;right=0;bottom=0;fillColor=none;strokeColor=default;" parent="SOTbb2QjoNHOY58TmjV8-41" vertex="1">
          <mxGeometry y="270" width="180" height="30" as="geometry" />
        </mxCell>
        <mxCell id="SOTbb2QjoNHOY58TmjV8-64" value="" style="shape=partialRectangle;connectable=0;top=0;left=0;bottom=0;right=0;editable=1;overflow=hidden;fillColor=none;strokeColor=default;" parent="SOTbb2QjoNHOY58TmjV8-63" vertex="1">
          <mxGeometry width="30" height="30" as="geometry">
            <mxRectangle width="30" height="30" as="alternateBounds" />
          </mxGeometry>
        </mxCell>
        <mxCell id="SOTbb2QjoNHOY58TmjV8-65" value="pac_sexo" style="shape=partialRectangle;connectable=0;top=0;left=0;bottom=0;right=0;align=left;spacingLeft=6;overflow=hidden;fillColor=none;strokeColor=default;fontStyle=1" parent="SOTbb2QjoNHOY58TmjV8-63" vertex="1">
          <mxGeometry x="30" width="150" height="30" as="geometry">
            <mxRectangle width="150" height="30" as="alternateBounds" />
          </mxGeometry>
        </mxCell>
        <mxCell id="_61jdk8e4AT1VANabuam-13" value="" style="shape=tableRow;horizontal=0;startSize=0;swimlaneHead=0;swimlaneBody=0;fillColor=none;collapsible=0;dropTarget=0;points=[[0,0.5],[1,0.5]];portConstraint=eastwest;top=0;left=0;right=0;bottom=0;" vertex="1" parent="SOTbb2QjoNHOY58TmjV8-41">
          <mxGeometry y="300" width="180" height="30" as="geometry" />
        </mxCell>
        <mxCell id="_61jdk8e4AT1VANabuam-14" value="" style="shape=partialRectangle;connectable=0;fillColor=none;top=0;left=0;bottom=0;right=0;editable=1;overflow=hidden;" vertex="1" parent="_61jdk8e4AT1VANabuam-13">
          <mxGeometry width="30" height="30" as="geometry">
            <mxRectangle width="30" height="30" as="alternateBounds" />
          </mxGeometry>
        </mxCell>
        <mxCell id="_61jdk8e4AT1VANabuam-15" value="pac_nome_mae" style="shape=partialRectangle;connectable=0;fillColor=none;top=0;left=0;bottom=0;right=0;align=left;spacingLeft=6;overflow=hidden;fontStyle=1" vertex="1" parent="_61jdk8e4AT1VANabuam-13">
          <mxGeometry x="30" width="150" height="30" as="geometry">
            <mxRectangle width="150" height="30" as="alternateBounds" />
          </mxGeometry>
        </mxCell>
        <mxCell id="_61jdk8e4AT1VANabuam-10" value="" style="shape=tableRow;horizontal=0;startSize=0;swimlaneHead=0;swimlaneBody=0;fillColor=none;collapsible=0;dropTarget=0;points=[[0,0.5],[1,0.5]];portConstraint=eastwest;top=0;left=0;right=0;bottom=0;" vertex="1" parent="SOTbb2QjoNHOY58TmjV8-41">
          <mxGeometry y="330" width="180" height="30" as="geometry" />
        </mxCell>
        <mxCell id="_61jdk8e4AT1VANabuam-11" value="" style="shape=partialRectangle;connectable=0;fillColor=none;top=0;left=0;bottom=0;right=0;editable=1;overflow=hidden;" vertex="1" parent="_61jdk8e4AT1VANabuam-10">
          <mxGeometry width="30" height="30" as="geometry">
            <mxRectangle width="30" height="30" as="alternateBounds" />
          </mxGeometry>
        </mxCell>
        <mxCell id="_61jdk8e4AT1VANabuam-12" value="pac_raca" style="shape=partialRectangle;connectable=0;fillColor=none;top=0;left=0;bottom=0;right=0;align=left;spacingLeft=6;overflow=hidden;fontStyle=1" vertex="1" parent="_61jdk8e4AT1VANabuam-10">
          <mxGeometry x="30" width="150" height="30" as="geometry">
            <mxRectangle width="150" height="30" as="alternateBounds" />
          </mxGeometry>
        </mxCell>
        <mxCell id="_61jdk8e4AT1VANabuam-16" value="" style="shape=tableRow;horizontal=0;startSize=0;swimlaneHead=0;swimlaneBody=0;fillColor=none;collapsible=0;dropTarget=0;points=[[0,0.5],[1,0.5]];portConstraint=eastwest;top=0;left=0;right=0;bottom=0;" vertex="1" parent="SOTbb2QjoNHOY58TmjV8-41">
          <mxGeometry y="360" width="180" height="30" as="geometry" />
        </mxCell>
        <mxCell id="_61jdk8e4AT1VANabuam-17" value="" style="shape=partialRectangle;connectable=0;fillColor=none;top=0;left=0;bottom=0;right=0;editable=1;overflow=hidden;" vertex="1" parent="_61jdk8e4AT1VANabuam-16">
          <mxGeometry width="30" height="30" as="geometry">
            <mxRectangle width="30" height="30" as="alternateBounds" />
          </mxGeometry>
        </mxCell>
        <mxCell id="_61jdk8e4AT1VANabuam-18" value="pac_endereco" style="shape=partialRectangle;connectable=0;fillColor=none;top=0;left=0;bottom=0;right=0;align=left;spacingLeft=6;overflow=hidden;fontStyle=1" vertex="1" parent="_61jdk8e4AT1VANabuam-16">
          <mxGeometry x="30" width="150" height="30" as="geometry">
            <mxRectangle width="150" height="30" as="alternateBounds" />
          </mxGeometry>
        </mxCell>
        <mxCell id="SOTbb2QjoNHOY58TmjV8-66" value="Atendimento" style="shape=table;startSize=30;container=1;collapsible=1;childLayout=tableLayout;fixedRows=1;rowLines=0;fontStyle=1;align=center;resizeLast=1;html=1;fillColor=#d5e8d4;strokeColor=#82b366;" parent="1" vertex="1">
          <mxGeometry x="2110" y="226.00000000000023" width="180" height="240" as="geometry">
            <mxRectangle x="-90.1099999999999" y="-750" width="110" height="30" as="alternateBounds" />
          </mxGeometry>
        </mxCell>
        <mxCell id="SOTbb2QjoNHOY58TmjV8-67" value="" style="shape=tableRow;horizontal=0;startSize=0;swimlaneHead=0;swimlaneBody=0;collapsible=0;dropTarget=0;points=[[0,0.5],[1,0.5]];portConstraint=eastwest;top=0;left=0;right=0;bottom=1;fillColor=none;strokeColor=default;" parent="SOTbb2QjoNHOY58TmjV8-66" vertex="1">
          <mxGeometry y="30" width="180" height="30" as="geometry" />
        </mxCell>
        <mxCell id="SOTbb2QjoNHOY58TmjV8-68" value="PK" style="shape=partialRectangle;connectable=0;top=0;left=0;bottom=0;right=0;fontStyle=1;overflow=hidden;whiteSpace=wrap;html=1;fillColor=none;strokeColor=default;" parent="SOTbb2QjoNHOY58TmjV8-67" vertex="1">
          <mxGeometry width="30" height="30" as="geometry">
            <mxRectangle width="30" height="30" as="alternateBounds" />
          </mxGeometry>
        </mxCell>
        <mxCell id="SOTbb2QjoNHOY58TmjV8-69" value="atend_id" style="shape=partialRectangle;connectable=0;top=0;left=0;bottom=0;right=0;align=left;spacingLeft=6;fontStyle=5;overflow=hidden;whiteSpace=wrap;html=1;fillColor=none;strokeColor=default;" parent="SOTbb2QjoNHOY58TmjV8-67" vertex="1">
          <mxGeometry x="30" width="150" height="30" as="geometry">
            <mxRectangle width="150" height="30" as="alternateBounds" />
          </mxGeometry>
        </mxCell>
        <mxCell id="hAWk6UTnpg3BsMGyecMC-27" value="" style="shape=tableRow;horizontal=0;startSize=0;swimlaneHead=0;swimlaneBody=0;fillColor=none;collapsible=0;dropTarget=0;points=[[0,0.5],[1,0.5]];portConstraint=eastwest;top=0;left=0;right=0;bottom=0;fontStyle=0" parent="SOTbb2QjoNHOY58TmjV8-66" vertex="1">
          <mxGeometry y="60" width="180" height="30" as="geometry" />
        </mxCell>
        <mxCell id="hAWk6UTnpg3BsMGyecMC-28" value="&lt;b&gt;FK&lt;/b&gt;" style="shape=partialRectangle;connectable=0;fillColor=none;top=0;left=0;bottom=0;right=0;fontStyle=0;overflow=hidden;whiteSpace=wrap;html=1;" parent="hAWk6UTnpg3BsMGyecMC-27" vertex="1">
          <mxGeometry width="30" height="30" as="geometry">
            <mxRectangle width="30" height="30" as="alternateBounds" />
          </mxGeometry>
        </mxCell>
        <mxCell id="hAWk6UTnpg3BsMGyecMC-29" value="&lt;b&gt;pac_id&lt;/b&gt;" style="shape=partialRectangle;connectable=0;fillColor=none;top=0;left=0;bottom=0;right=0;align=left;spacingLeft=6;fontStyle=0;overflow=hidden;whiteSpace=wrap;html=1;" parent="hAWk6UTnpg3BsMGyecMC-27" vertex="1">
          <mxGeometry x="30" width="150" height="30" as="geometry">
            <mxRectangle width="150" height="30" as="alternateBounds" />
          </mxGeometry>
        </mxCell>
        <mxCell id="SOTbb2QjoNHOY58TmjV8-70" value="" style="shape=tableRow;horizontal=0;startSize=0;swimlaneHead=0;swimlaneBody=0;collapsible=0;dropTarget=0;points=[[0,0.5],[1,0.5]];portConstraint=eastwest;top=0;left=0;right=0;bottom=0;fillColor=none;strokeColor=default;" parent="SOTbb2QjoNHOY58TmjV8-66" vertex="1">
          <mxGeometry y="90" width="180" height="30" as="geometry" />
        </mxCell>
        <mxCell id="SOTbb2QjoNHOY58TmjV8-71" value="&lt;b&gt;FK&lt;/b&gt;" style="shape=partialRectangle;connectable=0;top=0;left=0;bottom=0;right=0;fontStyle=0;overflow=hidden;whiteSpace=wrap;html=1;fillColor=none;strokeColor=default;" parent="SOTbb2QjoNHOY58TmjV8-70" vertex="1">
          <mxGeometry width="30" height="30" as="geometry">
            <mxRectangle width="30" height="30" as="alternateBounds" />
          </mxGeometry>
        </mxCell>
        <mxCell id="SOTbb2QjoNHOY58TmjV8-72" value="&lt;b&gt;con_id&lt;/b&gt;" style="shape=partialRectangle;connectable=0;top=0;left=0;bottom=0;right=0;align=left;spacingLeft=6;fontStyle=0;overflow=hidden;whiteSpace=wrap;html=1;fillColor=none;strokeColor=default;" parent="SOTbb2QjoNHOY58TmjV8-70" vertex="1">
          <mxGeometry x="30" width="150" height="30" as="geometry">
            <mxRectangle width="150" height="30" as="alternateBounds" />
          </mxGeometry>
        </mxCell>
        <mxCell id="SOTbb2QjoNHOY58TmjV8-76" value="" style="shape=tableRow;horizontal=0;startSize=0;swimlaneHead=0;swimlaneBody=0;collapsible=0;dropTarget=0;points=[[0,0.5],[1,0.5]];portConstraint=eastwest;top=0;left=0;right=0;bottom=0;fillColor=none;strokeColor=default;" parent="SOTbb2QjoNHOY58TmjV8-66" vertex="1">
          <mxGeometry y="120" width="180" height="30" as="geometry" />
        </mxCell>
        <mxCell id="SOTbb2QjoNHOY58TmjV8-77" value="&lt;b&gt;FK&lt;/b&gt;" style="shape=partialRectangle;connectable=0;top=0;left=0;bottom=0;right=0;fontStyle=0;overflow=hidden;whiteSpace=wrap;html=1;fillColor=none;strokeColor=default;" parent="SOTbb2QjoNHOY58TmjV8-76" vertex="1">
          <mxGeometry width="30" height="30" as="geometry">
            <mxRectangle width="30" height="30" as="alternateBounds" />
          </mxGeometry>
        </mxCell>
        <mxCell id="SOTbb2QjoNHOY58TmjV8-78" value="&lt;b&gt;leito_id&lt;/b&gt;" style="shape=partialRectangle;connectable=0;top=0;left=0;bottom=0;right=0;align=left;spacingLeft=6;fontStyle=0;overflow=hidden;whiteSpace=wrap;html=1;fillColor=none;strokeColor=default;" parent="SOTbb2QjoNHOY58TmjV8-76" vertex="1">
          <mxGeometry x="30" width="150" height="30" as="geometry">
            <mxRectangle width="150" height="30" as="alternateBounds" />
          </mxGeometry>
        </mxCell>
        <mxCell id="C3pVPxeQw2i0l3FB8gP5-7" value="" style="shape=tableRow;horizontal=0;startSize=0;swimlaneHead=0;swimlaneBody=0;fillColor=none;collapsible=0;dropTarget=0;points=[[0,0.5],[1,0.5]];portConstraint=eastwest;top=0;left=0;right=0;bottom=0;strokeColor=default;" parent="SOTbb2QjoNHOY58TmjV8-66" vertex="1">
          <mxGeometry y="150" width="180" height="30" as="geometry" />
        </mxCell>
        <mxCell id="C3pVPxeQw2i0l3FB8gP5-8" value="&lt;b&gt;FK&lt;/b&gt;" style="shape=partialRectangle;connectable=0;fillColor=none;top=0;left=0;bottom=0;right=0;fontStyle=0;overflow=hidden;whiteSpace=wrap;html=1;strokeColor=default;" parent="C3pVPxeQw2i0l3FB8gP5-7" vertex="1">
          <mxGeometry width="30" height="30" as="geometry">
            <mxRectangle width="30" height="30" as="alternateBounds" />
          </mxGeometry>
        </mxCell>
        <mxCell id="C3pVPxeQw2i0l3FB8gP5-9" value="&lt;b&gt;car_id&lt;/b&gt;" style="shape=partialRectangle;connectable=0;fillColor=none;top=0;left=0;bottom=0;right=0;align=left;spacingLeft=6;fontStyle=0;overflow=hidden;whiteSpace=wrap;html=1;strokeColor=default;" parent="C3pVPxeQw2i0l3FB8gP5-7" vertex="1">
          <mxGeometry x="30" width="150" height="30" as="geometry">
            <mxRectangle width="150" height="30" as="alternateBounds" />
          </mxGeometry>
        </mxCell>
        <mxCell id="SOTbb2QjoNHOY58TmjV8-85" value="" style="shape=tableRow;horizontal=0;startSize=0;swimlaneHead=0;swimlaneBody=0;collapsible=0;dropTarget=0;points=[[0,0.5],[1,0.5]];portConstraint=eastwest;top=0;left=0;right=0;bottom=0;fillColor=none;strokeColor=default;" parent="SOTbb2QjoNHOY58TmjV8-66" vertex="1">
          <mxGeometry y="180" width="180" height="30" as="geometry" />
        </mxCell>
        <mxCell id="SOTbb2QjoNHOY58TmjV8-86" value="&lt;b&gt;FK&lt;/b&gt;" style="shape=partialRectangle;connectable=0;top=0;left=0;bottom=0;right=0;fontStyle=0;overflow=hidden;whiteSpace=wrap;html=1;fillColor=none;strokeColor=default;" parent="SOTbb2QjoNHOY58TmjV8-85" vertex="1">
          <mxGeometry width="30" height="30" as="geometry">
            <mxRectangle width="30" height="30" as="alternateBounds" />
          </mxGeometry>
        </mxCell>
        <mxCell id="SOTbb2QjoNHOY58TmjV8-87" value="&lt;b&gt;med_id&lt;/b&gt;" style="shape=partialRectangle;connectable=0;top=0;left=0;bottom=0;right=0;align=left;spacingLeft=6;fontStyle=0;overflow=hidden;whiteSpace=wrap;html=1;fillColor=none;strokeColor=default;" parent="SOTbb2QjoNHOY58TmjV8-85" vertex="1">
          <mxGeometry x="30" width="150" height="30" as="geometry">
            <mxRectangle width="150" height="30" as="alternateBounds" />
          </mxGeometry>
        </mxCell>
        <mxCell id="SOTbb2QjoNHOY58TmjV8-88" value="" style="shape=tableRow;horizontal=0;startSize=0;swimlaneHead=0;swimlaneBody=0;collapsible=0;dropTarget=0;points=[[0,0.5],[1,0.5]];portConstraint=eastwest;top=0;left=0;right=0;bottom=0;fillColor=none;strokeColor=default;" parent="SOTbb2QjoNHOY58TmjV8-66" vertex="1">
          <mxGeometry y="210" width="180" height="30" as="geometry" />
        </mxCell>
        <mxCell id="SOTbb2QjoNHOY58TmjV8-89" value="" style="shape=partialRectangle;connectable=0;top=0;left=0;bottom=0;right=0;editable=1;overflow=hidden;whiteSpace=wrap;html=1;fillColor=none;strokeColor=default;" parent="SOTbb2QjoNHOY58TmjV8-88" vertex="1">
          <mxGeometry width="30" height="30" as="geometry">
            <mxRectangle width="30" height="30" as="alternateBounds" />
          </mxGeometry>
        </mxCell>
        <mxCell id="SOTbb2QjoNHOY58TmjV8-90" value="&lt;b&gt;atend_data&lt;/b&gt;" style="shape=partialRectangle;connectable=0;top=0;left=0;bottom=0;right=0;align=left;spacingLeft=6;overflow=hidden;whiteSpace=wrap;html=1;fillColor=none;strokeColor=default;" parent="SOTbb2QjoNHOY58TmjV8-88" vertex="1">
          <mxGeometry x="30" width="150" height="30" as="geometry">
            <mxRectangle width="150" height="30" as="alternateBounds" />
          </mxGeometry>
        </mxCell>
        <mxCell id="SOTbb2QjoNHOY58TmjV8-91" value="Laudo" style="shape=table;startSize=30;container=1;collapsible=1;childLayout=tableLayout;fixedRows=1;rowLines=0;fontStyle=1;align=center;resizeLast=1;html=1;fillColor=#d5e8d4;strokeColor=#82b366;" parent="1" vertex="1">
          <mxGeometry x="2640" y="550.0000000000002" width="180" height="330" as="geometry" />
        </mxCell>
        <mxCell id="SOTbb2QjoNHOY58TmjV8-92" value="" style="shape=tableRow;horizontal=0;startSize=0;swimlaneHead=0;swimlaneBody=0;collapsible=0;dropTarget=0;points=[[0,0.5],[1,0.5]];portConstraint=eastwest;top=0;left=0;right=0;bottom=1;fillColor=none;" parent="SOTbb2QjoNHOY58TmjV8-91" vertex="1">
          <mxGeometry y="30" width="180" height="30" as="geometry" />
        </mxCell>
        <mxCell id="SOTbb2QjoNHOY58TmjV8-93" value="PK" style="shape=partialRectangle;connectable=0;top=0;left=0;bottom=0;right=0;fontStyle=1;overflow=hidden;whiteSpace=wrap;html=1;fillColor=none;" parent="SOTbb2QjoNHOY58TmjV8-92" vertex="1">
          <mxGeometry width="30" height="30" as="geometry">
            <mxRectangle width="30" height="30" as="alternateBounds" />
          </mxGeometry>
        </mxCell>
        <mxCell id="SOTbb2QjoNHOY58TmjV8-94" value="lau_id" style="shape=partialRectangle;connectable=0;top=0;left=0;bottom=0;right=0;align=left;spacingLeft=6;fontStyle=5;overflow=hidden;whiteSpace=wrap;html=1;fillColor=none;" parent="SOTbb2QjoNHOY58TmjV8-92" vertex="1">
          <mxGeometry x="30" width="150" height="30" as="geometry">
            <mxRectangle width="150" height="30" as="alternateBounds" />
          </mxGeometry>
        </mxCell>
        <mxCell id="hAWk6UTnpg3BsMGyecMC-40" value="" style="shape=tableRow;horizontal=0;startSize=0;swimlaneHead=0;swimlaneBody=0;fillColor=none;collapsible=0;dropTarget=0;points=[[0,0.5],[1,0.5]];portConstraint=eastwest;top=0;left=0;right=0;bottom=0;" parent="SOTbb2QjoNHOY58TmjV8-91" vertex="1">
          <mxGeometry y="60" width="180" height="30" as="geometry" />
        </mxCell>
        <mxCell id="hAWk6UTnpg3BsMGyecMC-41" value="FK" style="shape=partialRectangle;connectable=0;fillColor=none;top=0;left=0;bottom=0;right=0;editable=1;overflow=hidden;fontStyle=1" parent="hAWk6UTnpg3BsMGyecMC-40" vertex="1">
          <mxGeometry width="30" height="30" as="geometry">
            <mxRectangle width="30" height="30" as="alternateBounds" />
          </mxGeometry>
        </mxCell>
        <mxCell id="hAWk6UTnpg3BsMGyecMC-42" value="atend_id" style="shape=partialRectangle;connectable=0;fillColor=none;top=0;left=0;bottom=0;right=0;align=left;spacingLeft=6;overflow=hidden;fontStyle=1" parent="hAWk6UTnpg3BsMGyecMC-40" vertex="1">
          <mxGeometry x="30" width="150" height="30" as="geometry">
            <mxRectangle width="150" height="30" as="alternateBounds" />
          </mxGeometry>
        </mxCell>
        <mxCell id="C3pVPxeQw2i0l3FB8gP5-4" value="" style="shape=tableRow;horizontal=0;startSize=0;swimlaneHead=0;swimlaneBody=0;fillColor=none;collapsible=0;dropTarget=0;points=[[0,0.5],[1,0.5]];portConstraint=eastwest;top=0;left=0;right=0;bottom=0;" parent="SOTbb2QjoNHOY58TmjV8-91" vertex="1">
          <mxGeometry y="90" width="180" height="30" as="geometry" />
        </mxCell>
        <mxCell id="C3pVPxeQw2i0l3FB8gP5-5" value="FK" style="shape=partialRectangle;connectable=0;fillColor=none;top=0;left=0;bottom=0;right=0;fontStyle=1;overflow=hidden;whiteSpace=wrap;html=1;" parent="C3pVPxeQw2i0l3FB8gP5-4" vertex="1">
          <mxGeometry width="30" height="30" as="geometry">
            <mxRectangle width="30" height="30" as="alternateBounds" />
          </mxGeometry>
        </mxCell>
        <mxCell id="C3pVPxeQw2i0l3FB8gP5-6" value="&lt;span style=&quot;text-wrap-mode: nowrap;&quot;&gt;&lt;b&gt;cli_id&lt;/b&gt;&lt;/span&gt;" style="shape=partialRectangle;connectable=0;fillColor=none;top=0;left=0;bottom=0;right=0;align=left;spacingLeft=6;fontStyle=0;overflow=hidden;whiteSpace=wrap;html=1;" parent="C3pVPxeQw2i0l3FB8gP5-4" vertex="1">
          <mxGeometry x="30" width="150" height="30" as="geometry">
            <mxRectangle width="150" height="30" as="alternateBounds" />
          </mxGeometry>
        </mxCell>
        <mxCell id="SOTbb2QjoNHOY58TmjV8-95" value="" style="shape=tableRow;horizontal=0;startSize=0;swimlaneHead=0;swimlaneBody=0;collapsible=0;dropTarget=0;points=[[0,0.5],[1,0.5]];portConstraint=eastwest;top=0;left=0;right=0;bottom=0;fillColor=none;" parent="SOTbb2QjoNHOY58TmjV8-91" vertex="1">
          <mxGeometry y="120" width="180" height="30" as="geometry" />
        </mxCell>
        <mxCell id="SOTbb2QjoNHOY58TmjV8-96" value="FK" style="shape=partialRectangle;connectable=0;top=0;left=0;bottom=0;right=0;fontStyle=1;overflow=hidden;whiteSpace=wrap;html=1;fillColor=none;" parent="SOTbb2QjoNHOY58TmjV8-95" vertex="1">
          <mxGeometry width="30" height="30" as="geometry">
            <mxRectangle width="30" height="30" as="alternateBounds" />
          </mxGeometry>
        </mxCell>
        <mxCell id="SOTbb2QjoNHOY58TmjV8-97" value="&lt;span style=&quot;font-weight: 700;&quot;&gt;proc_cid_id&lt;/span&gt;" style="shape=partialRectangle;connectable=0;top=0;left=0;bottom=0;right=0;align=left;spacingLeft=6;fontStyle=0;overflow=hidden;whiteSpace=wrap;html=1;fillColor=none;" parent="SOTbb2QjoNHOY58TmjV8-95" vertex="1">
          <mxGeometry x="30" width="150" height="30" as="geometry">
            <mxRectangle width="150" height="30" as="alternateBounds" />
          </mxGeometry>
        </mxCell>
        <mxCell id="SOTbb2QjoNHOY58TmjV8-107" value="" style="shape=tableRow;horizontal=0;startSize=0;swimlaneHead=0;swimlaneBody=0;collapsible=0;dropTarget=0;points=[[0,0.5],[1,0.5]];portConstraint=eastwest;top=0;left=0;right=0;bottom=0;fillColor=none;" parent="SOTbb2QjoNHOY58TmjV8-91" vertex="1">
          <mxGeometry y="150" width="180" height="30" as="geometry" />
        </mxCell>
        <mxCell id="SOTbb2QjoNHOY58TmjV8-108" value="" style="shape=partialRectangle;connectable=0;top=0;left=0;bottom=0;right=0;editable=1;overflow=hidden;whiteSpace=wrap;html=1;fillColor=none;" parent="SOTbb2QjoNHOY58TmjV8-107" vertex="1">
          <mxGeometry width="30" height="30" as="geometry">
            <mxRectangle width="30" height="30" as="alternateBounds" />
          </mxGeometry>
        </mxCell>
        <mxCell id="SOTbb2QjoNHOY58TmjV8-109" value="&lt;b&gt;lau_sinais&lt;/b&gt;" style="shape=partialRectangle;connectable=0;top=0;left=0;bottom=0;right=0;align=left;spacingLeft=6;overflow=hidden;whiteSpace=wrap;html=1;fillColor=none;" parent="SOTbb2QjoNHOY58TmjV8-107" vertex="1">
          <mxGeometry x="30" width="150" height="30" as="geometry">
            <mxRectangle width="150" height="30" as="alternateBounds" />
          </mxGeometry>
        </mxCell>
        <mxCell id="SOTbb2QjoNHOY58TmjV8-110" value="" style="shape=tableRow;horizontal=0;startSize=0;swimlaneHead=0;swimlaneBody=0;collapsible=0;dropTarget=0;points=[[0,0.5],[1,0.5]];portConstraint=eastwest;top=0;left=0;right=0;bottom=0;fillColor=none;" parent="SOTbb2QjoNHOY58TmjV8-91" vertex="1">
          <mxGeometry y="180" width="180" height="30" as="geometry" />
        </mxCell>
        <mxCell id="SOTbb2QjoNHOY58TmjV8-111" value="" style="shape=partialRectangle;connectable=0;top=0;left=0;bottom=0;right=0;editable=1;overflow=hidden;fillColor=none;" parent="SOTbb2QjoNHOY58TmjV8-110" vertex="1">
          <mxGeometry width="30" height="30" as="geometry">
            <mxRectangle width="30" height="30" as="alternateBounds" />
          </mxGeometry>
        </mxCell>
        <mxCell id="SOTbb2QjoNHOY58TmjV8-112" value="lau_internacao" style="shape=partialRectangle;connectable=0;top=0;left=0;bottom=0;right=0;align=left;spacingLeft=6;overflow=hidden;fillColor=none;fontStyle=1" parent="SOTbb2QjoNHOY58TmjV8-110" vertex="1">
          <mxGeometry x="30" width="150" height="30" as="geometry">
            <mxRectangle width="150" height="30" as="alternateBounds" />
          </mxGeometry>
        </mxCell>
        <mxCell id="SOTbb2QjoNHOY58TmjV8-113" value="" style="shape=tableRow;horizontal=0;startSize=0;swimlaneHead=0;swimlaneBody=0;collapsible=0;dropTarget=0;points=[[0,0.5],[1,0.5]];portConstraint=eastwest;top=0;left=0;right=0;bottom=0;fillColor=none;" parent="SOTbb2QjoNHOY58TmjV8-91" vertex="1">
          <mxGeometry y="210" width="180" height="30" as="geometry" />
        </mxCell>
        <mxCell id="SOTbb2QjoNHOY58TmjV8-114" value="" style="shape=partialRectangle;connectable=0;top=0;left=0;bottom=0;right=0;editable=1;overflow=hidden;fillColor=none;" parent="SOTbb2QjoNHOY58TmjV8-113" vertex="1">
          <mxGeometry width="30" height="30" as="geometry">
            <mxRectangle width="30" height="30" as="alternateBounds" />
          </mxGeometry>
        </mxCell>
        <mxCell id="SOTbb2QjoNHOY58TmjV8-115" value="lau_resultado" style="shape=partialRectangle;connectable=0;top=0;left=0;bottom=0;right=0;align=left;spacingLeft=6;overflow=hidden;fillColor=none;fontStyle=1" parent="SOTbb2QjoNHOY58TmjV8-113" vertex="1">
          <mxGeometry x="30" width="150" height="30" as="geometry">
            <mxRectangle width="150" height="30" as="alternateBounds" />
          </mxGeometry>
        </mxCell>
        <mxCell id="SOTbb2QjoNHOY58TmjV8-116" value="" style="shape=tableRow;horizontal=0;startSize=0;swimlaneHead=0;swimlaneBody=0;collapsible=0;dropTarget=0;points=[[0,0.5],[1,0.5]];portConstraint=eastwest;top=0;left=0;right=0;bottom=0;fillColor=none;" parent="SOTbb2QjoNHOY58TmjV8-91" vertex="1">
          <mxGeometry y="240" width="180" height="30" as="geometry" />
        </mxCell>
        <mxCell id="SOTbb2QjoNHOY58TmjV8-117" value="" style="shape=partialRectangle;connectable=0;top=0;left=0;bottom=0;right=0;editable=1;overflow=hidden;fillColor=none;" parent="SOTbb2QjoNHOY58TmjV8-116" vertex="1">
          <mxGeometry width="30" height="30" as="geometry">
            <mxRectangle width="30" height="30" as="alternateBounds" />
          </mxGeometry>
        </mxCell>
        <mxCell id="SOTbb2QjoNHOY58TmjV8-118" value="lau_recurso" style="shape=partialRectangle;connectable=0;top=0;left=0;bottom=0;right=0;align=left;spacingLeft=6;overflow=hidden;fillColor=none;fontStyle=1" parent="SOTbb2QjoNHOY58TmjV8-116" vertex="1">
          <mxGeometry x="30" width="150" height="30" as="geometry">
            <mxRectangle width="150" height="30" as="alternateBounds" />
          </mxGeometry>
        </mxCell>
        <mxCell id="SOTbb2QjoNHOY58TmjV8-125" value="" style="shape=tableRow;horizontal=0;startSize=0;swimlaneHead=0;swimlaneBody=0;collapsible=0;dropTarget=0;points=[[0,0.5],[1,0.5]];portConstraint=eastwest;top=0;left=0;right=0;bottom=0;fillColor=none;" parent="SOTbb2QjoNHOY58TmjV8-91" vertex="1">
          <mxGeometry y="270" width="180" height="30" as="geometry" />
        </mxCell>
        <mxCell id="SOTbb2QjoNHOY58TmjV8-126" value="" style="shape=partialRectangle;connectable=0;top=0;left=0;bottom=0;right=0;editable=1;overflow=hidden;fillColor=none;" parent="SOTbb2QjoNHOY58TmjV8-125" vertex="1">
          <mxGeometry width="30" height="30" as="geometry">
            <mxRectangle width="30" height="30" as="alternateBounds" />
          </mxGeometry>
        </mxCell>
        <mxCell id="SOTbb2QjoNHOY58TmjV8-127" value="lau_datapreenc" style="shape=partialRectangle;connectable=0;top=0;left=0;bottom=0;right=0;align=left;spacingLeft=6;overflow=hidden;fillColor=none;fontStyle=1" parent="SOTbb2QjoNHOY58TmjV8-125" vertex="1">
          <mxGeometry x="30" width="150" height="30" as="geometry">
            <mxRectangle width="150" height="30" as="alternateBounds" />
          </mxGeometry>
        </mxCell>
        <mxCell id="SOTbb2QjoNHOY58TmjV8-128" value="" style="shape=tableRow;horizontal=0;startSize=0;swimlaneHead=0;swimlaneBody=0;collapsible=0;dropTarget=0;points=[[0,0.5],[1,0.5]];portConstraint=eastwest;top=0;left=0;right=0;bottom=0;fillColor=none;" parent="SOTbb2QjoNHOY58TmjV8-91" vertex="1">
          <mxGeometry y="300" width="180" height="30" as="geometry" />
        </mxCell>
        <mxCell id="SOTbb2QjoNHOY58TmjV8-129" value="" style="shape=partialRectangle;connectable=0;top=0;left=0;bottom=0;right=0;editable=1;overflow=hidden;fillColor=none;" parent="SOTbb2QjoNHOY58TmjV8-128" vertex="1">
          <mxGeometry width="30" height="30" as="geometry">
            <mxRectangle width="30" height="30" as="alternateBounds" />
          </mxGeometry>
        </mxCell>
        <mxCell id="SOTbb2QjoNHOY58TmjV8-130" value="lau_status" style="shape=partialRectangle;connectable=0;top=0;left=0;bottom=0;right=0;align=left;spacingLeft=6;overflow=hidden;fillColor=none;fontStyle=1" parent="SOTbb2QjoNHOY58TmjV8-128" vertex="1">
          <mxGeometry x="30" width="150" height="30" as="geometry">
            <mxRectangle width="150" height="30" as="alternateBounds" />
          </mxGeometry>
        </mxCell>
        <mxCell id="SOTbb2QjoNHOY58TmjV8-131" value="" style="endArrow=ERmany;html=1;rounded=0;strokeWidth=2;startSize=12;sourcePerimeterSpacing=0;startArrow=ERone;startFill=0;endFill=0;edgeStyle=orthogonalEdgeStyle;entryX=0;entryY=0.5;entryDx=0;entryDy=0;fillColor=none;strokeColor=default;exitX=1;exitY=0.5;exitDx=0;exitDy=0;endSize=12;" parent="1" source="SOTbb2QjoNHOY58TmjV8-309" target="SOTbb2QjoNHOY58TmjV8-76" edge="1">
          <mxGeometry relative="1" as="geometry">
            <mxPoint x="2447" y="-134" as="sourcePoint" />
            <mxPoint x="2310" y="431.0000000000002" as="targetPoint" />
          </mxGeometry>
        </mxCell>
        <mxCell id="SOTbb2QjoNHOY58TmjV8-132" value="Mensagem_Chat" style="shape=table;startSize=30;container=1;collapsible=1;childLayout=tableLayout;fixedRows=1;rowLines=0;fontStyle=1;align=center;resizeLast=1;html=1;fillColor=#dae8fc;strokeColor=#6c8ebf;" parent="1" vertex="1">
          <mxGeometry x="2376" y="563" width="180" height="270" as="geometry" />
        </mxCell>
        <mxCell id="SOTbb2QjoNHOY58TmjV8-133" value="" style="shape=tableRow;horizontal=0;startSize=0;swimlaneHead=0;swimlaneBody=0;collapsible=0;dropTarget=0;points=[[0,0.5],[1,0.5]];portConstraint=eastwest;top=0;left=0;right=0;bottom=1;fillColor=none;" parent="SOTbb2QjoNHOY58TmjV8-132" vertex="1">
          <mxGeometry y="30" width="180" height="30" as="geometry" />
        </mxCell>
        <mxCell id="SOTbb2QjoNHOY58TmjV8-134" value="PK" style="shape=partialRectangle;connectable=0;top=0;left=0;bottom=0;right=0;fontStyle=1;overflow=hidden;whiteSpace=wrap;html=1;fillColor=none;" parent="SOTbb2QjoNHOY58TmjV8-133" vertex="1">
          <mxGeometry width="30" height="30" as="geometry">
            <mxRectangle width="30" height="30" as="alternateBounds" />
          </mxGeometry>
        </mxCell>
        <mxCell id="SOTbb2QjoNHOY58TmjV8-135" value="msg_id" style="shape=partialRectangle;connectable=0;top=0;left=0;bottom=0;right=0;align=left;spacingLeft=6;fontStyle=5;overflow=hidden;whiteSpace=wrap;html=1;fillColor=none;strokeColor=default;" parent="SOTbb2QjoNHOY58TmjV8-133" vertex="1">
          <mxGeometry x="30" width="150" height="30" as="geometry">
            <mxRectangle width="150" height="30" as="alternateBounds" />
          </mxGeometry>
        </mxCell>
        <mxCell id="SOTbb2QjoNHOY58TmjV8-136" value="" style="shape=tableRow;horizontal=0;startSize=0;swimlaneHead=0;swimlaneBody=0;collapsible=0;dropTarget=0;points=[[0,0.5],[1,0.5]];portConstraint=eastwest;top=0;left=0;right=0;bottom=0;fillColor=none;" parent="SOTbb2QjoNHOY58TmjV8-132" vertex="1">
          <mxGeometry y="60" width="180" height="30" as="geometry" />
        </mxCell>
        <mxCell id="SOTbb2QjoNHOY58TmjV8-137" value="&lt;b&gt;FK&lt;/b&gt;" style="shape=partialRectangle;connectable=0;top=0;left=0;bottom=0;right=0;fontStyle=0;overflow=hidden;whiteSpace=wrap;html=1;fillColor=none;" parent="SOTbb2QjoNHOY58TmjV8-136" vertex="1">
          <mxGeometry width="30" height="30" as="geometry">
            <mxRectangle width="30" height="30" as="alternateBounds" />
          </mxGeometry>
        </mxCell>
        <mxCell id="SOTbb2QjoNHOY58TmjV8-138" value="&lt;b&gt;usu_id_remetente&lt;/b&gt;" style="shape=partialRectangle;connectable=0;top=0;left=0;bottom=0;right=0;align=left;spacingLeft=6;fontStyle=0;overflow=hidden;whiteSpace=wrap;html=1;fillColor=none;strokeColor=default;" parent="SOTbb2QjoNHOY58TmjV8-136" vertex="1">
          <mxGeometry x="30" width="150" height="30" as="geometry">
            <mxRectangle width="150" height="30" as="alternateBounds" />
          </mxGeometry>
        </mxCell>
        <mxCell id="SOTbb2QjoNHOY58TmjV8-139" value="" style="shape=tableRow;horizontal=0;startSize=0;swimlaneHead=0;swimlaneBody=0;collapsible=0;dropTarget=0;points=[[0,0.5],[1,0.5]];portConstraint=eastwest;top=0;left=0;right=0;bottom=0;fillColor=none;" parent="SOTbb2QjoNHOY58TmjV8-132" vertex="1">
          <mxGeometry y="90" width="180" height="30" as="geometry" />
        </mxCell>
        <mxCell id="SOTbb2QjoNHOY58TmjV8-140" value="&lt;b&gt;FK&lt;/b&gt;" style="shape=partialRectangle;connectable=0;top=0;left=0;bottom=0;right=0;fontStyle=0;overflow=hidden;whiteSpace=wrap;html=1;fillColor=none;" parent="SOTbb2QjoNHOY58TmjV8-139" vertex="1">
          <mxGeometry width="30" height="30" as="geometry">
            <mxRectangle width="30" height="30" as="alternateBounds" />
          </mxGeometry>
        </mxCell>
        <mxCell id="SOTbb2QjoNHOY58TmjV8-141" value="&lt;b&gt;usu_id_destinatario&lt;/b&gt;" style="shape=partialRectangle;connectable=0;top=0;left=0;bottom=0;right=0;align=left;spacingLeft=6;fontStyle=0;overflow=hidden;whiteSpace=wrap;html=1;fillColor=none;" parent="SOTbb2QjoNHOY58TmjV8-139" vertex="1">
          <mxGeometry x="30" width="150" height="30" as="geometry">
            <mxRectangle width="150" height="30" as="alternateBounds" />
          </mxGeometry>
        </mxCell>
        <mxCell id="SOTbb2QjoNHOY58TmjV8-142" value="" style="shape=tableRow;horizontal=0;startSize=0;swimlaneHead=0;swimlaneBody=0;collapsible=0;dropTarget=0;points=[[0,0.5],[1,0.5]];portConstraint=eastwest;top=0;left=0;right=0;bottom=0;fillColor=none;" parent="SOTbb2QjoNHOY58TmjV8-132" vertex="1">
          <mxGeometry y="120" width="180" height="30" as="geometry" />
        </mxCell>
        <mxCell id="SOTbb2QjoNHOY58TmjV8-143" value="" style="shape=partialRectangle;connectable=0;top=0;left=0;bottom=0;right=0;editable=1;overflow=hidden;whiteSpace=wrap;html=1;fillColor=none;" parent="SOTbb2QjoNHOY58TmjV8-142" vertex="1">
          <mxGeometry width="30" height="30" as="geometry">
            <mxRectangle width="30" height="30" as="alternateBounds" />
          </mxGeometry>
        </mxCell>
        <mxCell id="SOTbb2QjoNHOY58TmjV8-144" value="&lt;b&gt;msg_conteudo&lt;/b&gt;" style="shape=partialRectangle;connectable=0;top=0;left=0;bottom=0;right=0;align=left;spacingLeft=6;overflow=hidden;whiteSpace=wrap;html=1;fillColor=none;" parent="SOTbb2QjoNHOY58TmjV8-142" vertex="1">
          <mxGeometry x="30" width="150" height="30" as="geometry">
            <mxRectangle width="150" height="30" as="alternateBounds" />
          </mxGeometry>
        </mxCell>
        <mxCell id="SOTbb2QjoNHOY58TmjV8-145" value="" style="shape=tableRow;horizontal=0;startSize=0;swimlaneHead=0;swimlaneBody=0;collapsible=0;dropTarget=0;points=[[0,0.5],[1,0.5]];portConstraint=eastwest;top=0;left=0;right=0;bottom=0;fillColor=none;" parent="SOTbb2QjoNHOY58TmjV8-132" vertex="1">
          <mxGeometry y="150" width="180" height="30" as="geometry" />
        </mxCell>
        <mxCell id="SOTbb2QjoNHOY58TmjV8-146" value="" style="shape=partialRectangle;connectable=0;top=0;left=0;bottom=0;right=0;editable=1;overflow=hidden;fillColor=none;" parent="SOTbb2QjoNHOY58TmjV8-145" vertex="1">
          <mxGeometry width="30" height="30" as="geometry">
            <mxRectangle width="30" height="30" as="alternateBounds" />
          </mxGeometry>
        </mxCell>
        <mxCell id="SOTbb2QjoNHOY58TmjV8-147" value="msg_arqanexo" style="shape=partialRectangle;connectable=0;top=0;left=0;bottom=0;right=0;align=left;spacingLeft=6;overflow=hidden;fillColor=none;" parent="SOTbb2QjoNHOY58TmjV8-145" vertex="1">
          <mxGeometry x="30" width="150" height="30" as="geometry">
            <mxRectangle width="150" height="30" as="alternateBounds" />
          </mxGeometry>
        </mxCell>
        <mxCell id="SOTbb2QjoNHOY58TmjV8-154" value="" style="shape=tableRow;horizontal=0;startSize=0;swimlaneHead=0;swimlaneBody=0;fillColor=none;collapsible=0;dropTarget=0;points=[[0,0.5],[1,0.5]];portConstraint=eastwest;top=0;left=0;right=0;bottom=0;" parent="SOTbb2QjoNHOY58TmjV8-132" vertex="1">
          <mxGeometry y="180" width="180" height="30" as="geometry" />
        </mxCell>
        <mxCell id="SOTbb2QjoNHOY58TmjV8-155" value="" style="shape=partialRectangle;connectable=0;fillColor=none;top=0;left=0;bottom=0;right=0;editable=1;overflow=hidden;" parent="SOTbb2QjoNHOY58TmjV8-154" vertex="1">
          <mxGeometry width="30" height="30" as="geometry">
            <mxRectangle width="30" height="30" as="alternateBounds" />
          </mxGeometry>
        </mxCell>
        <mxCell id="SOTbb2QjoNHOY58TmjV8-156" value="msg_datahoraenvio" style="shape=partialRectangle;connectable=0;fillColor=none;top=0;left=0;bottom=0;right=0;align=left;spacingLeft=6;overflow=hidden;" parent="SOTbb2QjoNHOY58TmjV8-154" vertex="1">
          <mxGeometry x="30" width="150" height="30" as="geometry">
            <mxRectangle width="150" height="30" as="alternateBounds" />
          </mxGeometry>
        </mxCell>
        <mxCell id="Q2eQjhKr7wSCaX2ebzxs-19" value="" style="shape=tableRow;horizontal=0;startSize=0;swimlaneHead=0;swimlaneBody=0;fillColor=none;collapsible=0;dropTarget=0;points=[[0,0.5],[1,0.5]];portConstraint=eastwest;top=0;left=0;right=0;bottom=0;" parent="SOTbb2QjoNHOY58TmjV8-132" vertex="1">
          <mxGeometry y="210" width="180" height="30" as="geometry" />
        </mxCell>
        <mxCell id="Q2eQjhKr7wSCaX2ebzxs-20" value="" style="shape=partialRectangle;connectable=0;fillColor=none;top=0;left=0;bottom=0;right=0;editable=1;overflow=hidden;" parent="Q2eQjhKr7wSCaX2ebzxs-19" vertex="1">
          <mxGeometry width="30" height="30" as="geometry">
            <mxRectangle width="30" height="30" as="alternateBounds" />
          </mxGeometry>
        </mxCell>
        <mxCell id="Q2eQjhKr7wSCaX2ebzxs-21" value="msg_status" style="shape=partialRectangle;connectable=0;fillColor=none;top=0;left=0;bottom=0;right=0;align=left;spacingLeft=6;overflow=hidden;" parent="Q2eQjhKr7wSCaX2ebzxs-19" vertex="1">
          <mxGeometry x="30" width="150" height="30" as="geometry">
            <mxRectangle width="150" height="30" as="alternateBounds" />
          </mxGeometry>
        </mxCell>
        <mxCell id="Q2eQjhKr7wSCaX2ebzxs-24" value="" style="shape=tableRow;horizontal=0;startSize=0;swimlaneHead=0;swimlaneBody=0;fillColor=none;collapsible=0;dropTarget=0;points=[[0,0.5],[1,0.5]];portConstraint=eastwest;top=0;left=0;right=0;bottom=0;" parent="SOTbb2QjoNHOY58TmjV8-132" vertex="1">
          <mxGeometry y="240" width="180" height="30" as="geometry" />
        </mxCell>
        <mxCell id="Q2eQjhKr7wSCaX2ebzxs-25" value="FK" style="shape=partialRectangle;connectable=0;fillColor=none;top=0;left=0;bottom=0;right=0;fontStyle=0;overflow=hidden;whiteSpace=wrap;html=1;" parent="Q2eQjhKr7wSCaX2ebzxs-24" vertex="1">
          <mxGeometry width="30" height="30" as="geometry">
            <mxRectangle width="30" height="30" as="alternateBounds" />
          </mxGeometry>
        </mxCell>
        <mxCell id="Q2eQjhKr7wSCaX2ebzxs-26" value="msg_resposta" style="shape=partialRectangle;connectable=0;fillColor=none;top=0;left=0;bottom=0;right=0;align=left;spacingLeft=6;fontStyle=0;overflow=hidden;whiteSpace=wrap;html=1;" parent="Q2eQjhKr7wSCaX2ebzxs-24" vertex="1">
          <mxGeometry x="30" width="150" height="30" as="geometry">
            <mxRectangle width="150" height="30" as="alternateBounds" />
          </mxGeometry>
        </mxCell>
        <mxCell id="Q2eQjhKr7wSCaX2ebzxs-27" value="" style="endArrow=ERone;html=1;rounded=0;startSize=12;endSize=12;sourcePerimeterSpacing=12;strokeWidth=2;startArrow=ERmany;startFill=0;entryX=1;entryY=0.5;entryDx=0;entryDy=0;exitX=1;exitY=0.5;exitDx=0;exitDy=0;edgeStyle=orthogonalEdgeStyle;endFill=0;fillColor=none;" parent="SOTbb2QjoNHOY58TmjV8-132" source="Q2eQjhKr7wSCaX2ebzxs-24" target="SOTbb2QjoNHOY58TmjV8-133" edge="1">
          <mxGeometry relative="1" as="geometry">
            <mxPoint x="93" y="157" as="sourcePoint" />
            <mxPoint x="5" y="275" as="targetPoint" />
            <Array as="points">
              <mxPoint x="201" y="255" />
              <mxPoint x="201" y="45" />
            </Array>
          </mxGeometry>
        </mxCell>
        <mxCell id="SOTbb2QjoNHOY58TmjV8-157" value="Logs_Acao" style="shape=table;startSize=30;container=1;collapsible=1;childLayout=tableLayout;fixedRows=1;rowLines=0;fontStyle=1;align=center;resizeLast=1;html=1;fillColor=#dae8fc;strokeColor=#6c8ebf;" parent="1" vertex="1">
          <mxGeometry x="2108" y="486" width="180" height="180" as="geometry" />
        </mxCell>
        <mxCell id="SOTbb2QjoNHOY58TmjV8-158" value="" style="shape=tableRow;horizontal=0;startSize=0;swimlaneHead=0;swimlaneBody=0;collapsible=0;dropTarget=0;points=[[0,0.5],[1,0.5]];portConstraint=eastwest;top=0;left=0;right=0;bottom=1;fillColor=none;" parent="SOTbb2QjoNHOY58TmjV8-157" vertex="1">
          <mxGeometry y="30" width="180" height="30" as="geometry" />
        </mxCell>
        <mxCell id="SOTbb2QjoNHOY58TmjV8-159" value="PK" style="shape=partialRectangle;connectable=0;top=0;left=0;bottom=0;right=0;fontStyle=1;overflow=hidden;whiteSpace=wrap;html=1;fillColor=none;" parent="SOTbb2QjoNHOY58TmjV8-158" vertex="1">
          <mxGeometry width="30" height="30" as="geometry">
            <mxRectangle width="30" height="30" as="alternateBounds" />
          </mxGeometry>
        </mxCell>
        <mxCell id="SOTbb2QjoNHOY58TmjV8-160" value="log_id" style="shape=partialRectangle;connectable=0;top=0;left=0;bottom=0;right=0;align=left;spacingLeft=6;fontStyle=5;overflow=hidden;whiteSpace=wrap;html=1;fillColor=none;" parent="SOTbb2QjoNHOY58TmjV8-158" vertex="1">
          <mxGeometry x="30" width="150" height="30" as="geometry">
            <mxRectangle width="150" height="30" as="alternateBounds" />
          </mxGeometry>
        </mxCell>
        <mxCell id="SOTbb2QjoNHOY58TmjV8-161" value="" style="shape=tableRow;horizontal=0;startSize=0;swimlaneHead=0;swimlaneBody=0;collapsible=0;dropTarget=0;points=[[0,0.5],[1,0.5]];portConstraint=eastwest;top=0;left=0;right=0;bottom=0;fillColor=none;" parent="SOTbb2QjoNHOY58TmjV8-157" vertex="1">
          <mxGeometry y="60" width="180" height="30" as="geometry" />
        </mxCell>
        <mxCell id="SOTbb2QjoNHOY58TmjV8-162" value="&lt;b&gt;FK&lt;/b&gt;" style="shape=partialRectangle;connectable=0;top=0;left=0;bottom=0;right=0;fontStyle=0;overflow=hidden;whiteSpace=wrap;html=1;fillColor=none;" parent="SOTbb2QjoNHOY58TmjV8-161" vertex="1">
          <mxGeometry width="30" height="30" as="geometry">
            <mxRectangle width="30" height="30" as="alternateBounds" />
          </mxGeometry>
        </mxCell>
        <mxCell id="SOTbb2QjoNHOY58TmjV8-163" value="&lt;b&gt;usu_id&lt;/b&gt;" style="shape=partialRectangle;connectable=0;top=0;left=0;bottom=0;right=0;align=left;spacingLeft=6;fontStyle=0;overflow=hidden;whiteSpace=wrap;html=1;fillColor=none;" parent="SOTbb2QjoNHOY58TmjV8-161" vertex="1">
          <mxGeometry x="30" width="150" height="30" as="geometry">
            <mxRectangle width="150" height="30" as="alternateBounds" />
          </mxGeometry>
        </mxCell>
        <mxCell id="SOTbb2QjoNHOY58TmjV8-164" value="" style="shape=tableRow;horizontal=0;startSize=0;swimlaneHead=0;swimlaneBody=0;collapsible=0;dropTarget=0;points=[[0,0.5],[1,0.5]];portConstraint=eastwest;top=0;left=0;right=0;bottom=0;fillColor=none;" parent="SOTbb2QjoNHOY58TmjV8-157" vertex="1">
          <mxGeometry y="90" width="180" height="30" as="geometry" />
        </mxCell>
        <mxCell id="SOTbb2QjoNHOY58TmjV8-165" value="" style="shape=partialRectangle;connectable=0;top=0;left=0;bottom=0;right=0;editable=1;overflow=hidden;whiteSpace=wrap;html=1;fillColor=none;" parent="SOTbb2QjoNHOY58TmjV8-164" vertex="1">
          <mxGeometry width="30" height="30" as="geometry">
            <mxRectangle width="30" height="30" as="alternateBounds" />
          </mxGeometry>
        </mxCell>
        <mxCell id="SOTbb2QjoNHOY58TmjV8-166" value="&lt;b&gt;log_acao&lt;/b&gt;" style="shape=partialRectangle;connectable=0;top=0;left=0;bottom=0;right=0;align=left;spacingLeft=6;overflow=hidden;whiteSpace=wrap;html=1;fillColor=none;" parent="SOTbb2QjoNHOY58TmjV8-164" vertex="1">
          <mxGeometry x="30" width="150" height="30" as="geometry">
            <mxRectangle width="150" height="30" as="alternateBounds" />
          </mxGeometry>
        </mxCell>
        <mxCell id="SOTbb2QjoNHOY58TmjV8-167" value="" style="shape=tableRow;horizontal=0;startSize=0;swimlaneHead=0;swimlaneBody=0;collapsible=0;dropTarget=0;points=[[0,0.5],[1,0.5]];portConstraint=eastwest;top=0;left=0;right=0;bottom=0;fillColor=none;" parent="SOTbb2QjoNHOY58TmjV8-157" vertex="1">
          <mxGeometry y="120" width="180" height="30" as="geometry" />
        </mxCell>
        <mxCell id="SOTbb2QjoNHOY58TmjV8-168" value="" style="shape=partialRectangle;connectable=0;top=0;left=0;bottom=0;right=0;editable=1;overflow=hidden;fillColor=none;" parent="SOTbb2QjoNHOY58TmjV8-167" vertex="1">
          <mxGeometry width="30" height="30" as="geometry">
            <mxRectangle width="30" height="30" as="alternateBounds" />
          </mxGeometry>
        </mxCell>
        <mxCell id="SOTbb2QjoNHOY58TmjV8-169" value="log_detalhe" style="shape=partialRectangle;connectable=0;top=0;left=0;bottom=0;right=0;align=left;spacingLeft=6;overflow=hidden;fillColor=none;fontStyle=1" parent="SOTbb2QjoNHOY58TmjV8-167" vertex="1">
          <mxGeometry x="30" width="150" height="30" as="geometry">
            <mxRectangle width="150" height="30" as="alternateBounds" />
          </mxGeometry>
        </mxCell>
        <mxCell id="SOTbb2QjoNHOY58TmjV8-170" value="" style="shape=tableRow;horizontal=0;startSize=0;swimlaneHead=0;swimlaneBody=0;collapsible=0;dropTarget=0;points=[[0,0.5],[1,0.5]];portConstraint=eastwest;top=0;left=0;right=0;bottom=0;fillColor=none;" parent="SOTbb2QjoNHOY58TmjV8-157" vertex="1">
          <mxGeometry y="150" width="180" height="30" as="geometry" />
        </mxCell>
        <mxCell id="SOTbb2QjoNHOY58TmjV8-171" value="" style="shape=partialRectangle;connectable=0;top=0;left=0;bottom=0;right=0;editable=1;overflow=hidden;whiteSpace=wrap;html=1;fillColor=none;" parent="SOTbb2QjoNHOY58TmjV8-170" vertex="1">
          <mxGeometry width="30" height="30" as="geometry">
            <mxRectangle width="30" height="30" as="alternateBounds" />
          </mxGeometry>
        </mxCell>
        <mxCell id="SOTbb2QjoNHOY58TmjV8-172" value="&lt;b&gt;log_datahora&lt;/b&gt;" style="shape=partialRectangle;connectable=0;top=0;left=0;bottom=0;right=0;align=left;spacingLeft=6;overflow=hidden;whiteSpace=wrap;html=1;fillColor=none;" parent="SOTbb2QjoNHOY58TmjV8-170" vertex="1">
          <mxGeometry x="30" width="150" height="30" as="geometry">
            <mxRectangle width="150" height="30" as="alternateBounds" />
          </mxGeometry>
        </mxCell>
        <mxCell id="SOTbb2QjoNHOY58TmjV8-174" value="" style="endArrow=ERone;html=1;rounded=0;startSize=12;endSize=12;sourcePerimeterSpacing=12;strokeWidth=2;startArrow=ERmany;startFill=0;entryX=1;entryY=0.5;entryDx=0;entryDy=0;exitX=1;exitY=0.5;exitDx=0;exitDy=0;edgeStyle=orthogonalEdgeStyle;endFill=0;fillColor=none;" parent="1" source="SOTbb2QjoNHOY58TmjV8-161" target="SOTbb2QjoNHOY58TmjV8-2" edge="1">
          <mxGeometry relative="1" as="geometry">
            <mxPoint x="1617.8900000000003" y="1436" as="sourcePoint" />
            <mxPoint x="1447.89" y="1436" as="targetPoint" />
            <Array as="points">
              <mxPoint x="2322" y="561" />
              <mxPoint x="2322" y="786" />
            </Array>
          </mxGeometry>
        </mxCell>
        <mxCell id="SOTbb2QjoNHOY58TmjV8-175" value="Medico" style="shape=table;startSize=30;container=1;collapsible=1;childLayout=tableLayout;fixedRows=1;rowLines=0;fontStyle=1;align=center;resizeLast=1;html=1;fillColor=#d5e8d4;strokeColor=#82b366;" parent="1" vertex="1">
          <mxGeometry x="2390" y="956.0000000000002" width="180" height="90" as="geometry" />
        </mxCell>
        <mxCell id="SOTbb2QjoNHOY58TmjV8-176" value="" style="shape=tableRow;horizontal=0;startSize=0;swimlaneHead=0;swimlaneBody=0;collapsible=0;dropTarget=0;points=[[0,0.5],[1,0.5]];portConstraint=eastwest;top=0;left=0;right=0;bottom=1;fillColor=none;" parent="SOTbb2QjoNHOY58TmjV8-175" vertex="1">
          <mxGeometry y="30" width="180" height="30" as="geometry" />
        </mxCell>
        <mxCell id="SOTbb2QjoNHOY58TmjV8-177" value="PK FK" style="shape=partialRectangle;connectable=0;top=0;left=0;bottom=0;right=0;fontStyle=1;overflow=hidden;whiteSpace=wrap;html=1;fillColor=none;" parent="SOTbb2QjoNHOY58TmjV8-176" vertex="1">
          <mxGeometry width="50.52173913043498" height="30" as="geometry">
            <mxRectangle width="50.52173913043498" height="30" as="alternateBounds" />
          </mxGeometry>
        </mxCell>
        <mxCell id="SOTbb2QjoNHOY58TmjV8-178" value="med_id" style="shape=partialRectangle;connectable=0;top=0;left=0;bottom=0;right=0;align=left;spacingLeft=6;fontStyle=1;overflow=hidden;whiteSpace=wrap;html=1;fillColor=none;" parent="SOTbb2QjoNHOY58TmjV8-176" vertex="1">
          <mxGeometry x="50.52173913043498" width="129.47826086956502" height="30" as="geometry">
            <mxRectangle width="129.47826086956502" height="30" as="alternateBounds" />
          </mxGeometry>
        </mxCell>
        <mxCell id="SOTbb2QjoNHOY58TmjV8-179" value="" style="shape=tableRow;horizontal=0;startSize=0;swimlaneHead=0;swimlaneBody=0;collapsible=0;dropTarget=0;points=[[0,0.5],[1,0.5]];portConstraint=eastwest;top=0;left=0;right=0;bottom=0;fillColor=none;" parent="SOTbb2QjoNHOY58TmjV8-175" vertex="1">
          <mxGeometry y="60" width="180" height="30" as="geometry" />
        </mxCell>
        <mxCell id="SOTbb2QjoNHOY58TmjV8-180" value="" style="shape=partialRectangle;connectable=0;top=0;left=0;bottom=0;right=0;editable=1;overflow=hidden;fillColor=none;fontStyle=1" parent="SOTbb2QjoNHOY58TmjV8-179" vertex="1">
          <mxGeometry width="50.52173913043498" height="30" as="geometry">
            <mxRectangle width="50.52173913043498" height="30" as="alternateBounds" />
          </mxGeometry>
        </mxCell>
        <mxCell id="SOTbb2QjoNHOY58TmjV8-181" value="med_crm" style="shape=partialRectangle;connectable=0;top=0;left=0;bottom=0;right=0;align=left;spacingLeft=6;overflow=hidden;fillColor=none;fontStyle=1" parent="SOTbb2QjoNHOY58TmjV8-179" vertex="1">
          <mxGeometry x="50.52173913043498" width="129.47826086956502" height="30" as="geometry">
            <mxRectangle width="129.47826086956502" height="30" as="alternateBounds" />
          </mxGeometry>
        </mxCell>
        <mxCell id="SOTbb2QjoNHOY58TmjV8-202" value="" style="endArrow=ERone;html=1;rounded=0;startSize=12;endSize=12;sourcePerimeterSpacing=12;strokeWidth=2;startArrow=ERmany;startFill=0;edgeStyle=orthogonalEdgeStyle;endFill=0;entryX=1;entryY=0.5;entryDx=0;entryDy=0;fillColor=none;exitX=0;exitY=0.5;exitDx=0;exitDy=0;" parent="1" source="SOTbb2QjoNHOY58TmjV8-176" target="SOTbb2QjoNHOY58TmjV8-2" edge="1">
          <mxGeometry relative="1" as="geometry">
            <mxPoint x="2150" y="1631" as="sourcePoint" />
            <mxPoint x="2288" y="971.0000000000002" as="targetPoint" />
          </mxGeometry>
        </mxCell>
        <mxCell id="SOTbb2QjoNHOY58TmjV8-204" value="Setor" style="shape=table;startSize=30;container=1;collapsible=1;childLayout=tableLayout;fixedRows=1;rowLines=0;fontStyle=1;align=center;resizeLast=1;html=1;fillColor=#d5e8d4;strokeColor=#82b366;" parent="1" vertex="1">
          <mxGeometry x="1784" y="653.0000000000002" width="180" height="90" as="geometry" />
        </mxCell>
        <mxCell id="SOTbb2QjoNHOY58TmjV8-205" value="" style="shape=tableRow;horizontal=0;startSize=0;swimlaneHead=0;swimlaneBody=0;collapsible=0;dropTarget=0;points=[[0,0.5],[1,0.5]];portConstraint=eastwest;top=0;left=0;right=0;bottom=1;fillColor=none;strokeColor=default;" parent="SOTbb2QjoNHOY58TmjV8-204" vertex="1">
          <mxGeometry y="30" width="180" height="30" as="geometry" />
        </mxCell>
        <mxCell id="SOTbb2QjoNHOY58TmjV8-206" value="PK" style="shape=partialRectangle;connectable=0;top=0;left=0;bottom=0;right=0;fontStyle=1;overflow=hidden;whiteSpace=wrap;html=1;fillColor=none;strokeColor=default;" parent="SOTbb2QjoNHOY58TmjV8-205" vertex="1">
          <mxGeometry width="30" height="30" as="geometry">
            <mxRectangle width="30" height="30" as="alternateBounds" />
          </mxGeometry>
        </mxCell>
        <mxCell id="SOTbb2QjoNHOY58TmjV8-207" value="set_id" style="shape=partialRectangle;connectable=0;top=0;left=0;bottom=0;right=0;align=left;spacingLeft=6;fontStyle=5;overflow=hidden;whiteSpace=wrap;html=1;fillColor=none;strokeColor=default;" parent="SOTbb2QjoNHOY58TmjV8-205" vertex="1">
          <mxGeometry x="30" width="150" height="30" as="geometry">
            <mxRectangle width="150" height="30" as="alternateBounds" />
          </mxGeometry>
        </mxCell>
        <mxCell id="SOTbb2QjoNHOY58TmjV8-208" value="" style="shape=tableRow;horizontal=0;startSize=0;swimlaneHead=0;swimlaneBody=0;collapsible=0;dropTarget=0;points=[[0,0.5],[1,0.5]];portConstraint=eastwest;top=0;left=0;right=0;bottom=0;fillColor=none;strokeColor=default;" parent="SOTbb2QjoNHOY58TmjV8-204" vertex="1">
          <mxGeometry y="60" width="180" height="30" as="geometry" />
        </mxCell>
        <mxCell id="SOTbb2QjoNHOY58TmjV8-209" value="" style="shape=partialRectangle;connectable=0;top=0;left=0;bottom=0;right=0;editable=1;overflow=hidden;fillColor=none;strokeColor=default;" parent="SOTbb2QjoNHOY58TmjV8-208" vertex="1">
          <mxGeometry width="30" height="30" as="geometry">
            <mxRectangle width="30" height="30" as="alternateBounds" />
          </mxGeometry>
        </mxCell>
        <mxCell id="SOTbb2QjoNHOY58TmjV8-210" value="set_nome" style="shape=partialRectangle;connectable=0;top=0;left=0;bottom=0;right=0;align=left;spacingLeft=6;overflow=hidden;fillColor=none;strokeColor=default;fontStyle=1" parent="SOTbb2QjoNHOY58TmjV8-208" vertex="1">
          <mxGeometry x="30" width="150" height="30" as="geometry">
            <mxRectangle width="150" height="30" as="alternateBounds" />
          </mxGeometry>
        </mxCell>
        <mxCell id="SOTbb2QjoNHOY58TmjV8-247" value="Convenio" style="shape=table;startSize=30;container=1;collapsible=1;childLayout=tableLayout;fixedRows=1;rowLines=0;fontStyle=1;align=center;resizeLast=1;html=1;fillColor=#d5e8d4;strokeColor=#82b366;" parent="1" vertex="1">
          <mxGeometry x="1784" y="301.0000000000002" width="180" height="90" as="geometry">
            <mxRectangle x="-380" y="-1280" width="90" height="30" as="alternateBounds" />
          </mxGeometry>
        </mxCell>
        <mxCell id="SOTbb2QjoNHOY58TmjV8-248" value="" style="shape=tableRow;horizontal=0;startSize=0;swimlaneHead=0;swimlaneBody=0;collapsible=0;dropTarget=0;points=[[0,0.5],[1,0.5]];portConstraint=eastwest;top=0;left=0;right=0;bottom=1;fillColor=none;strokeColor=default;" parent="SOTbb2QjoNHOY58TmjV8-247" vertex="1">
          <mxGeometry y="30" width="180" height="30" as="geometry" />
        </mxCell>
        <mxCell id="SOTbb2QjoNHOY58TmjV8-249" value="PK" style="shape=partialRectangle;connectable=0;top=0;left=0;bottom=0;right=0;fontStyle=1;overflow=hidden;whiteSpace=wrap;html=1;fillColor=none;strokeColor=default;" parent="SOTbb2QjoNHOY58TmjV8-248" vertex="1">
          <mxGeometry width="30" height="30" as="geometry">
            <mxRectangle width="30" height="30" as="alternateBounds" />
          </mxGeometry>
        </mxCell>
        <mxCell id="SOTbb2QjoNHOY58TmjV8-250" value="con_id" style="shape=partialRectangle;connectable=0;top=0;left=0;bottom=0;right=0;align=left;spacingLeft=6;fontStyle=5;overflow=hidden;whiteSpace=wrap;html=1;fillColor=none;strokeColor=default;" parent="SOTbb2QjoNHOY58TmjV8-248" vertex="1">
          <mxGeometry x="30" width="150" height="30" as="geometry">
            <mxRectangle width="150" height="30" as="alternateBounds" />
          </mxGeometry>
        </mxCell>
        <mxCell id="SOTbb2QjoNHOY58TmjV8-251" value="" style="shape=tableRow;horizontal=0;startSize=0;swimlaneHead=0;swimlaneBody=0;collapsible=0;dropTarget=0;points=[[0,0.5],[1,0.5]];portConstraint=eastwest;top=0;left=0;right=0;bottom=0;fillColor=none;strokeColor=default;" parent="SOTbb2QjoNHOY58TmjV8-247" vertex="1">
          <mxGeometry y="60" width="180" height="30" as="geometry" />
        </mxCell>
        <mxCell id="SOTbb2QjoNHOY58TmjV8-252" value="" style="shape=partialRectangle;connectable=0;top=0;left=0;bottom=0;right=0;editable=1;overflow=hidden;fillColor=none;strokeColor=default;" parent="SOTbb2QjoNHOY58TmjV8-251" vertex="1">
          <mxGeometry width="30" height="30" as="geometry">
            <mxRectangle width="30" height="30" as="alternateBounds" />
          </mxGeometry>
        </mxCell>
        <mxCell id="SOTbb2QjoNHOY58TmjV8-253" value="con_tipo" style="shape=partialRectangle;connectable=0;top=0;left=0;bottom=0;right=0;align=left;spacingLeft=6;overflow=hidden;fillColor=none;strokeColor=default;fontStyle=1" parent="SOTbb2QjoNHOY58TmjV8-251" vertex="1">
          <mxGeometry x="30" width="150" height="30" as="geometry">
            <mxRectangle width="150" height="30" as="alternateBounds" />
          </mxGeometry>
        </mxCell>
        <mxCell id="SOTbb2QjoNHOY58TmjV8-284" value="" style="endArrow=ERmany;html=1;rounded=0;strokeWidth=2;startSize=12;sourcePerimeterSpacing=12;startArrow=ERone;startFill=0;endFill=0;exitX=0;exitY=0.5;exitDx=0;exitDy=0;edgeStyle=orthogonalEdgeStyle;fillColor=none;strokeColor=default;entryX=0;entryY=0.5;entryDx=0;entryDy=0;" parent="1" source="SOTbb2QjoNHOY58TmjV8-205" target="hAWk6UTnpg3BsMGyecMC-30" edge="1">
          <mxGeometry relative="1" as="geometry">
            <mxPoint x="2330" y="234.82000000000016" as="sourcePoint" />
            <mxPoint x="2128" y="-109" as="targetPoint" />
            <Array as="points">
              <mxPoint x="1760" y="698" />
              <mxPoint x="1760" y="561" />
            </Array>
          </mxGeometry>
        </mxCell>
        <mxCell id="SOTbb2QjoNHOY58TmjV8-285" value="" style="endArrow=ERmany;html=1;rounded=0;strokeWidth=2;startSize=12;sourcePerimeterSpacing=0;startArrow=ERone;startFill=0;endFill=0;exitX=1;exitY=0.5;exitDx=0;exitDy=0;entryX=0;entryY=0.5;entryDx=0;entryDy=0;edgeStyle=orthogonalEdgeStyle;fillColor=none;strokeColor=default;endSize=12;" parent="1" source="SOTbb2QjoNHOY58TmjV8-248" target="SOTbb2QjoNHOY58TmjV8-70" edge="1">
          <mxGeometry relative="1" as="geometry">
            <mxPoint x="2390" y="136.00000000000023" as="sourcePoint" />
            <mxPoint x="2550" y="136.00000000000023" as="targetPoint" />
          </mxGeometry>
        </mxCell>
        <mxCell id="SOTbb2QjoNHOY58TmjV8-286" value="Favorito" style="shape=table;startSize=30;container=1;collapsible=1;childLayout=tableLayout;fixedRows=1;rowLines=0;fontStyle=1;align=center;resizeLast=1;html=1;fillColor=#d5e8d4;strokeColor=#82b366;" parent="1" vertex="1">
          <mxGeometry x="2640" y="956.0000000000002" width="180" height="150" as="geometry" />
        </mxCell>
        <mxCell id="SOTbb2QjoNHOY58TmjV8-287" value="" style="shape=tableRow;horizontal=0;startSize=0;swimlaneHead=0;swimlaneBody=0;collapsible=0;dropTarget=0;points=[[0,0.5],[1,0.5]];portConstraint=eastwest;top=0;left=0;right=0;bottom=1;fillColor=none;" parent="SOTbb2QjoNHOY58TmjV8-286" vertex="1">
          <mxGeometry y="30" width="180" height="30" as="geometry" />
        </mxCell>
        <mxCell id="SOTbb2QjoNHOY58TmjV8-288" value="PK" style="shape=partialRectangle;connectable=0;top=0;left=0;bottom=0;right=0;fontStyle=1;overflow=hidden;whiteSpace=wrap;html=1;fillColor=none;" parent="SOTbb2QjoNHOY58TmjV8-287" vertex="1">
          <mxGeometry width="30" height="30" as="geometry">
            <mxRectangle width="30" height="30" as="alternateBounds" />
          </mxGeometry>
        </mxCell>
        <mxCell id="SOTbb2QjoNHOY58TmjV8-289" value="fav_id" style="shape=partialRectangle;connectable=0;top=0;left=0;bottom=0;right=0;align=left;spacingLeft=6;fontStyle=5;overflow=hidden;whiteSpace=wrap;html=1;fillColor=none;" parent="SOTbb2QjoNHOY58TmjV8-287" vertex="1">
          <mxGeometry x="30" width="150" height="30" as="geometry">
            <mxRectangle width="150" height="30" as="alternateBounds" />
          </mxGeometry>
        </mxCell>
        <mxCell id="SOTbb2QjoNHOY58TmjV8-290" value="" style="shape=tableRow;horizontal=0;startSize=0;swimlaneHead=0;swimlaneBody=0;collapsible=0;dropTarget=0;points=[[0,0.5],[1,0.5]];portConstraint=eastwest;top=0;left=0;right=0;bottom=0;fillColor=none;" parent="SOTbb2QjoNHOY58TmjV8-286" vertex="1">
          <mxGeometry y="60" width="180" height="30" as="geometry" />
        </mxCell>
        <mxCell id="SOTbb2QjoNHOY58TmjV8-291" value="&lt;b&gt;FK&lt;/b&gt;" style="shape=partialRectangle;connectable=0;top=0;left=0;bottom=0;right=0;fontStyle=0;overflow=hidden;whiteSpace=wrap;html=1;fillColor=none;" parent="SOTbb2QjoNHOY58TmjV8-290" vertex="1">
          <mxGeometry width="30" height="30" as="geometry">
            <mxRectangle width="30" height="30" as="alternateBounds" />
          </mxGeometry>
        </mxCell>
        <mxCell id="SOTbb2QjoNHOY58TmjV8-292" value="&lt;b&gt;lau_id&lt;/b&gt;" style="shape=partialRectangle;connectable=0;top=0;left=0;bottom=0;right=0;align=left;spacingLeft=6;fontStyle=0;overflow=hidden;whiteSpace=wrap;html=1;fillColor=none;" parent="SOTbb2QjoNHOY58TmjV8-290" vertex="1">
          <mxGeometry x="30" width="150" height="30" as="geometry">
            <mxRectangle width="150" height="30" as="alternateBounds" />
          </mxGeometry>
        </mxCell>
        <mxCell id="SOTbb2QjoNHOY58TmjV8-293" value="" style="shape=tableRow;horizontal=0;startSize=0;swimlaneHead=0;swimlaneBody=0;collapsible=0;dropTarget=0;points=[[0,0.5],[1,0.5]];portConstraint=eastwest;top=0;left=0;right=0;bottom=0;fillColor=none;" parent="SOTbb2QjoNHOY58TmjV8-286" vertex="1">
          <mxGeometry y="90" width="180" height="30" as="geometry" />
        </mxCell>
        <mxCell id="SOTbb2QjoNHOY58TmjV8-294" value="&lt;b&gt;FK&lt;/b&gt;" style="shape=partialRectangle;connectable=0;top=0;left=0;bottom=0;right=0;fontStyle=0;overflow=hidden;whiteSpace=wrap;html=1;fillColor=none;" parent="SOTbb2QjoNHOY58TmjV8-293" vertex="1">
          <mxGeometry width="30" height="30" as="geometry">
            <mxRectangle width="30" height="30" as="alternateBounds" />
          </mxGeometry>
        </mxCell>
        <mxCell id="SOTbb2QjoNHOY58TmjV8-295" value="&lt;b&gt;med_id&lt;/b&gt;" style="shape=partialRectangle;connectable=0;top=0;left=0;bottom=0;right=0;align=left;spacingLeft=6;fontStyle=0;overflow=hidden;whiteSpace=wrap;html=1;fillColor=none;" parent="SOTbb2QjoNHOY58TmjV8-293" vertex="1">
          <mxGeometry x="30" width="150" height="30" as="geometry">
            <mxRectangle width="150" height="30" as="alternateBounds" />
          </mxGeometry>
        </mxCell>
        <mxCell id="Q2eQjhKr7wSCaX2ebzxs-15" value="" style="shape=tableRow;horizontal=0;startSize=0;swimlaneHead=0;swimlaneBody=0;fillColor=none;collapsible=0;dropTarget=0;points=[[0,0.5],[1,0.5]];portConstraint=eastwest;top=0;left=0;right=0;bottom=0;" parent="SOTbb2QjoNHOY58TmjV8-286" vertex="1">
          <mxGeometry y="120" width="180" height="30" as="geometry" />
        </mxCell>
        <mxCell id="Q2eQjhKr7wSCaX2ebzxs-16" value="" style="shape=partialRectangle;connectable=0;fillColor=none;top=0;left=0;bottom=0;right=0;editable=1;overflow=hidden;" parent="Q2eQjhKr7wSCaX2ebzxs-15" vertex="1">
          <mxGeometry width="30" height="30" as="geometry">
            <mxRectangle width="30" height="30" as="alternateBounds" />
          </mxGeometry>
        </mxCell>
        <mxCell id="Q2eQjhKr7wSCaX2ebzxs-17" value="fav_nome" style="shape=partialRectangle;connectable=0;fillColor=none;top=0;left=0;bottom=0;right=0;align=left;spacingLeft=6;overflow=hidden;fontStyle=1" parent="Q2eQjhKr7wSCaX2ebzxs-15" vertex="1">
          <mxGeometry x="30" width="150" height="30" as="geometry">
            <mxRectangle width="150" height="30" as="alternateBounds" />
          </mxGeometry>
        </mxCell>
        <mxCell id="SOTbb2QjoNHOY58TmjV8-304" value="" style="endArrow=ERmany;html=1;rounded=0;strokeWidth=2;startSize=12;sourcePerimeterSpacing=0;startArrow=ERone;startFill=0;endFill=0;entryX=0;entryY=0.5;entryDx=0;entryDy=0;edgeStyle=orthogonalEdgeStyle;fillColor=none;exitX=0;exitY=0.5;exitDx=0;exitDy=0;endSize=12;" parent="1" source="SOTbb2QjoNHOY58TmjV8-92" target="SOTbb2QjoNHOY58TmjV8-290" edge="1">
          <mxGeometry relative="1" as="geometry">
            <mxPoint x="2800" y="1388.5" as="sourcePoint" />
            <mxPoint x="2830" y="1543.5" as="targetPoint" />
            <Array as="points">
              <mxPoint x="2620" y="595" />
              <mxPoint x="2620" y="1031" />
            </Array>
          </mxGeometry>
        </mxCell>
        <mxCell id="SOTbb2QjoNHOY58TmjV8-305" value="" style="endArrow=ERmany;html=1;rounded=0;strokeWidth=2;startSize=12;sourcePerimeterSpacing=0;startArrow=ERone;startFill=0;endFill=0;exitX=1;exitY=0.5;exitDx=0;exitDy=0;entryX=0;entryY=0.5;entryDx=0;entryDy=0;edgeStyle=orthogonalEdgeStyle;fillColor=none;endSize=12;" parent="1" source="SOTbb2QjoNHOY58TmjV8-176" target="SOTbb2QjoNHOY58TmjV8-293" edge="1">
          <mxGeometry relative="1" as="geometry">
            <mxPoint x="2970" y="1546" as="sourcePoint" />
            <mxPoint x="3100" y="1576" as="targetPoint" />
          </mxGeometry>
        </mxCell>
        <mxCell id="SOTbb2QjoNHOY58TmjV8-308" value="Leito" style="shape=table;startSize=30;container=1;collapsible=1;childLayout=tableLayout;fixedRows=1;rowLines=0;fontStyle=1;align=center;resizeLast=1;html=1;fillColor=#d5e8d4;strokeColor=#82b366;" parent="1" vertex="1">
          <mxGeometry x="1790" y="486.0000000000002" width="180" height="120" as="geometry" />
        </mxCell>
        <mxCell id="SOTbb2QjoNHOY58TmjV8-309" value="" style="shape=tableRow;horizontal=0;startSize=0;swimlaneHead=0;swimlaneBody=0;collapsible=0;dropTarget=0;points=[[0,0.5],[1,0.5]];portConstraint=eastwest;top=0;left=0;right=0;bottom=1;fillColor=none;strokeColor=default;" parent="SOTbb2QjoNHOY58TmjV8-308" vertex="1">
          <mxGeometry y="30" width="180" height="30" as="geometry" />
        </mxCell>
        <mxCell id="SOTbb2QjoNHOY58TmjV8-310" value="PK" style="shape=partialRectangle;connectable=0;top=0;left=0;bottom=0;right=0;fontStyle=1;overflow=hidden;whiteSpace=wrap;html=1;fillColor=none;strokeColor=default;" parent="SOTbb2QjoNHOY58TmjV8-309" vertex="1">
          <mxGeometry width="30" height="30" as="geometry">
            <mxRectangle width="30" height="30" as="alternateBounds" />
          </mxGeometry>
        </mxCell>
        <mxCell id="SOTbb2QjoNHOY58TmjV8-311" value="leito_id" style="shape=partialRectangle;connectable=0;top=0;left=0;bottom=0;right=0;align=left;spacingLeft=6;fontStyle=5;overflow=hidden;whiteSpace=wrap;html=1;fillColor=none;strokeColor=default;" parent="SOTbb2QjoNHOY58TmjV8-309" vertex="1">
          <mxGeometry x="30" width="150" height="30" as="geometry">
            <mxRectangle width="150" height="30" as="alternateBounds" />
          </mxGeometry>
        </mxCell>
        <mxCell id="hAWk6UTnpg3BsMGyecMC-30" value="" style="shape=tableRow;horizontal=0;startSize=0;swimlaneHead=0;swimlaneBody=0;fillColor=none;collapsible=0;dropTarget=0;points=[[0,0.5],[1,0.5]];portConstraint=eastwest;top=0;left=0;right=0;bottom=0;" parent="SOTbb2QjoNHOY58TmjV8-308" vertex="1">
          <mxGeometry y="60" width="180" height="30" as="geometry" />
        </mxCell>
        <mxCell id="hAWk6UTnpg3BsMGyecMC-31" value="&lt;b&gt;FK&lt;/b&gt;" style="shape=partialRectangle;connectable=0;fillColor=none;top=0;left=0;bottom=0;right=0;fontStyle=0;overflow=hidden;whiteSpace=wrap;html=1;" parent="hAWk6UTnpg3BsMGyecMC-30" vertex="1">
          <mxGeometry width="30" height="30" as="geometry">
            <mxRectangle width="30" height="30" as="alternateBounds" />
          </mxGeometry>
        </mxCell>
        <mxCell id="hAWk6UTnpg3BsMGyecMC-32" value="&lt;b&gt;set_id&lt;/b&gt;" style="shape=partialRectangle;connectable=0;fillColor=none;top=0;left=0;bottom=0;right=0;align=left;spacingLeft=6;fontStyle=0;overflow=hidden;whiteSpace=wrap;html=1;" parent="hAWk6UTnpg3BsMGyecMC-30" vertex="1">
          <mxGeometry x="30" width="150" height="30" as="geometry">
            <mxRectangle width="150" height="30" as="alternateBounds" />
          </mxGeometry>
        </mxCell>
        <mxCell id="hAWk6UTnpg3BsMGyecMC-34" value="" style="shape=tableRow;horizontal=0;startSize=0;swimlaneHead=0;swimlaneBody=0;fillColor=none;collapsible=0;dropTarget=0;points=[[0,0.5],[1,0.5]];portConstraint=eastwest;top=0;left=0;right=0;bottom=0;" parent="SOTbb2QjoNHOY58TmjV8-308" vertex="1">
          <mxGeometry y="90" width="180" height="30" as="geometry" />
        </mxCell>
        <mxCell id="hAWk6UTnpg3BsMGyecMC-35" value="" style="shape=partialRectangle;connectable=0;fillColor=none;top=0;left=0;bottom=0;right=0;editable=1;overflow=hidden;" parent="hAWk6UTnpg3BsMGyecMC-34" vertex="1">
          <mxGeometry width="30" height="30" as="geometry">
            <mxRectangle width="30" height="30" as="alternateBounds" />
          </mxGeometry>
        </mxCell>
        <mxCell id="hAWk6UTnpg3BsMGyecMC-36" value="leito_identificacao" style="shape=partialRectangle;connectable=0;fillColor=none;top=0;left=0;bottom=0;right=0;align=left;spacingLeft=6;overflow=hidden;fontStyle=1" parent="hAWk6UTnpg3BsMGyecMC-34" vertex="1">
          <mxGeometry x="30" width="150" height="30" as="geometry">
            <mxRectangle width="150" height="30" as="alternateBounds" />
          </mxGeometry>
        </mxCell>
        <mxCell id="SOTbb2QjoNHOY58TmjV8-312" value="" style="endArrow=ERone;html=1;rounded=0;strokeWidth=2;startSize=12;sourcePerimeterSpacing=0;startArrow=ERmany;startFill=0;endFill=0;exitX=1;exitY=0.5;exitDx=0;exitDy=0;edgeStyle=orthogonalEdgeStyle;fillColor=none;strokeColor=default;endSize=12;entryX=1;entryY=0.5;entryDx=0;entryDy=0;" parent="1" source="hAWk6UTnpg3BsMGyecMC-40" target="SOTbb2QjoNHOY58TmjV8-67" edge="1">
          <mxGeometry relative="1" as="geometry">
            <mxPoint x="1560" y="1206.0000000000002" as="sourcePoint" />
            <mxPoint x="2677" y="361" as="targetPoint" />
            <Array as="points">
              <mxPoint x="2868" y="625" />
              <mxPoint x="2868" y="271" />
            </Array>
          </mxGeometry>
        </mxCell>
        <mxCell id="SOTbb2QjoNHOY58TmjV8-313" value="" style="endArrow=ERone;html=1;rounded=0;startSize=12;endSize=12;sourcePerimeterSpacing=12;strokeWidth=2;startArrow=ERmany;startFill=0;exitX=0;exitY=0.5;exitDx=0;exitDy=0;edgeStyle=orthogonalEdgeStyle;endFill=0;fillColor=none;strokeColor=default;entryX=1;entryY=0.5;entryDx=0;entryDy=0;" parent="1" source="hAWk6UTnpg3BsMGyecMC-27" target="SOTbb2QjoNHOY58TmjV8-42" edge="1">
          <mxGeometry relative="1" as="geometry">
            <mxPoint x="2008" y="271.0000000000002" as="sourcePoint" />
            <mxPoint x="2062" y="232" as="targetPoint" />
          </mxGeometry>
        </mxCell>
        <mxCell id="SOTbb2QjoNHOY58TmjV8-316" value="Cid" style="shape=table;startSize=30;container=1;collapsible=1;childLayout=tableLayout;fixedRows=1;rowLines=0;fontStyle=1;align=center;resizeLast=1;html=1;fillColor=#d5e8d4;strokeColor=#82b366;" parent="1" vertex="1">
          <mxGeometry x="2988" y="955.0000000000002" width="180" height="120" as="geometry" />
        </mxCell>
        <mxCell id="SOTbb2QjoNHOY58TmjV8-317" value="" style="shape=tableRow;horizontal=0;startSize=0;swimlaneHead=0;swimlaneBody=0;collapsible=0;dropTarget=0;points=[[0,0.5],[1,0.5]];portConstraint=eastwest;top=0;left=0;right=0;bottom=1;fillColor=none;" parent="SOTbb2QjoNHOY58TmjV8-316" vertex="1">
          <mxGeometry y="30" width="180" height="30" as="geometry" />
        </mxCell>
        <mxCell id="SOTbb2QjoNHOY58TmjV8-318" value="PK" style="shape=partialRectangle;connectable=0;top=0;left=0;bottom=0;right=0;fontStyle=1;overflow=hidden;whiteSpace=wrap;html=1;fillColor=none;" parent="SOTbb2QjoNHOY58TmjV8-317" vertex="1">
          <mxGeometry width="30" height="30" as="geometry">
            <mxRectangle width="30" height="30" as="alternateBounds" />
          </mxGeometry>
        </mxCell>
        <mxCell id="SOTbb2QjoNHOY58TmjV8-319" value="cid_id" style="shape=partialRectangle;connectable=0;top=0;left=0;bottom=0;right=0;align=left;spacingLeft=6;fontStyle=5;overflow=hidden;whiteSpace=wrap;html=1;fillColor=none;" parent="SOTbb2QjoNHOY58TmjV8-317" vertex="1">
          <mxGeometry x="30" width="150" height="30" as="geometry">
            <mxRectangle width="150" height="30" as="alternateBounds" />
          </mxGeometry>
        </mxCell>
        <mxCell id="SOTbb2QjoNHOY58TmjV8-320" value="" style="shape=tableRow;horizontal=0;startSize=0;swimlaneHead=0;swimlaneBody=0;collapsible=0;dropTarget=0;points=[[0,0.5],[1,0.5]];portConstraint=eastwest;top=0;left=0;right=0;bottom=0;fillColor=none;" parent="SOTbb2QjoNHOY58TmjV8-316" vertex="1">
          <mxGeometry y="60" width="180" height="30" as="geometry" />
        </mxCell>
        <mxCell id="SOTbb2QjoNHOY58TmjV8-321" value="" style="shape=partialRectangle;connectable=0;top=0;left=0;bottom=0;right=0;editable=1;overflow=hidden;whiteSpace=wrap;html=1;fillColor=none;" parent="SOTbb2QjoNHOY58TmjV8-320" vertex="1">
          <mxGeometry width="30" height="30" as="geometry">
            <mxRectangle width="30" height="30" as="alternateBounds" />
          </mxGeometry>
        </mxCell>
        <mxCell id="SOTbb2QjoNHOY58TmjV8-322" value="&lt;b&gt;cid_codigo&lt;/b&gt;" style="shape=partialRectangle;connectable=0;top=0;left=0;bottom=0;right=0;align=left;spacingLeft=6;overflow=hidden;whiteSpace=wrap;html=1;fillColor=none;" parent="SOTbb2QjoNHOY58TmjV8-320" vertex="1">
          <mxGeometry x="30" width="150" height="30" as="geometry">
            <mxRectangle width="150" height="30" as="alternateBounds" />
          </mxGeometry>
        </mxCell>
        <mxCell id="SOTbb2QjoNHOY58TmjV8-323" value="" style="shape=tableRow;horizontal=0;startSize=0;swimlaneHead=0;swimlaneBody=0;collapsible=0;dropTarget=0;points=[[0,0.5],[1,0.5]];portConstraint=eastwest;top=0;left=0;right=0;bottom=0;fillColor=none;" parent="SOTbb2QjoNHOY58TmjV8-316" vertex="1">
          <mxGeometry y="90" width="180" height="30" as="geometry" />
        </mxCell>
        <mxCell id="SOTbb2QjoNHOY58TmjV8-324" value="" style="shape=partialRectangle;connectable=0;top=0;left=0;bottom=0;right=0;editable=1;overflow=hidden;fillColor=none;" parent="SOTbb2QjoNHOY58TmjV8-323" vertex="1">
          <mxGeometry width="30" height="30" as="geometry">
            <mxRectangle width="30" height="30" as="alternateBounds" />
          </mxGeometry>
        </mxCell>
        <mxCell id="SOTbb2QjoNHOY58TmjV8-325" value="cid_descricao" style="shape=partialRectangle;connectable=0;top=0;left=0;bottom=0;right=0;align=left;spacingLeft=6;overflow=hidden;fillColor=none;fontStyle=1" parent="SOTbb2QjoNHOY58TmjV8-323" vertex="1">
          <mxGeometry x="30" width="150" height="30" as="geometry">
            <mxRectangle width="150" height="30" as="alternateBounds" />
          </mxGeometry>
        </mxCell>
        <mxCell id="SOTbb2QjoNHOY58TmjV8-326" value="Procedimento" style="shape=table;startSize=30;container=1;collapsible=1;childLayout=tableLayout;fixedRows=1;rowLines=0;fontStyle=1;align=center;resizeLast=1;html=1;fillColor=#d5e8d4;strokeColor=#82b366;" parent="1" vertex="1">
          <mxGeometry x="2988" y="568.0000000000002" width="180" height="120" as="geometry" />
        </mxCell>
        <mxCell id="SOTbb2QjoNHOY58TmjV8-327" value="" style="shape=tableRow;horizontal=0;startSize=0;swimlaneHead=0;swimlaneBody=0;collapsible=0;dropTarget=0;points=[[0,0.5],[1,0.5]];portConstraint=eastwest;top=0;left=0;right=0;bottom=1;fillColor=none;" parent="SOTbb2QjoNHOY58TmjV8-326" vertex="1">
          <mxGeometry y="30" width="180" height="30" as="geometry" />
        </mxCell>
        <mxCell id="SOTbb2QjoNHOY58TmjV8-328" value="PK" style="shape=partialRectangle;connectable=0;top=0;left=0;bottom=0;right=0;fontStyle=1;overflow=hidden;whiteSpace=wrap;html=1;fillColor=none;" parent="SOTbb2QjoNHOY58TmjV8-327" vertex="1">
          <mxGeometry width="30" height="30" as="geometry">
            <mxRectangle width="30" height="30" as="alternateBounds" />
          </mxGeometry>
        </mxCell>
        <mxCell id="SOTbb2QjoNHOY58TmjV8-329" value="pro_id" style="shape=partialRectangle;connectable=0;top=0;left=0;bottom=0;right=0;align=left;spacingLeft=6;fontStyle=5;overflow=hidden;whiteSpace=wrap;html=1;fillColor=none;" parent="SOTbb2QjoNHOY58TmjV8-327" vertex="1">
          <mxGeometry x="30" width="150" height="30" as="geometry">
            <mxRectangle width="150" height="30" as="alternateBounds" />
          </mxGeometry>
        </mxCell>
        <mxCell id="SOTbb2QjoNHOY58TmjV8-333" value="" style="shape=tableRow;horizontal=0;startSize=0;swimlaneHead=0;swimlaneBody=0;collapsible=0;dropTarget=0;points=[[0,0.5],[1,0.5]];portConstraint=eastwest;top=0;left=0;right=0;bottom=0;fillColor=none;" parent="SOTbb2QjoNHOY58TmjV8-326" vertex="1">
          <mxGeometry y="60" width="180" height="30" as="geometry" />
        </mxCell>
        <mxCell id="SOTbb2QjoNHOY58TmjV8-334" value="" style="shape=partialRectangle;connectable=0;top=0;left=0;bottom=0;right=0;editable=1;overflow=hidden;whiteSpace=wrap;html=1;fillColor=none;" parent="SOTbb2QjoNHOY58TmjV8-333" vertex="1">
          <mxGeometry width="30" height="30" as="geometry">
            <mxRectangle width="30" height="30" as="alternateBounds" />
          </mxGeometry>
        </mxCell>
        <mxCell id="SOTbb2QjoNHOY58TmjV8-335" value="&lt;b&gt;pro_codigo&lt;/b&gt;" style="shape=partialRectangle;connectable=0;top=0;left=0;bottom=0;right=0;align=left;spacingLeft=6;overflow=hidden;whiteSpace=wrap;html=1;fillColor=none;" parent="SOTbb2QjoNHOY58TmjV8-333" vertex="1">
          <mxGeometry x="30" width="150" height="30" as="geometry">
            <mxRectangle width="150" height="30" as="alternateBounds" />
          </mxGeometry>
        </mxCell>
        <mxCell id="SOTbb2QjoNHOY58TmjV8-336" value="" style="shape=tableRow;horizontal=0;startSize=0;swimlaneHead=0;swimlaneBody=0;collapsible=0;dropTarget=0;points=[[0,0.5],[1,0.5]];portConstraint=eastwest;top=0;left=0;right=0;bottom=0;fillColor=none;" parent="SOTbb2QjoNHOY58TmjV8-326" vertex="1">
          <mxGeometry y="90" width="180" height="30" as="geometry" />
        </mxCell>
        <mxCell id="SOTbb2QjoNHOY58TmjV8-337" value="" style="shape=partialRectangle;connectable=0;top=0;left=0;bottom=0;right=0;editable=1;overflow=hidden;fillColor=none;" parent="SOTbb2QjoNHOY58TmjV8-336" vertex="1">
          <mxGeometry width="30" height="30" as="geometry">
            <mxRectangle width="30" height="30" as="alternateBounds" />
          </mxGeometry>
        </mxCell>
        <mxCell id="SOTbb2QjoNHOY58TmjV8-338" value="pro_descricao" style="shape=partialRectangle;connectable=0;top=0;left=0;bottom=0;right=0;align=left;spacingLeft=6;overflow=hidden;fillColor=none;fontStyle=1" parent="SOTbb2QjoNHOY58TmjV8-336" vertex="1">
          <mxGeometry x="30" width="150" height="30" as="geometry">
            <mxRectangle width="150" height="30" as="alternateBounds" />
          </mxGeometry>
        </mxCell>
        <mxCell id="SOTbb2QjoNHOY58TmjV8-339" value="" style="endArrow=ERmany;html=1;rounded=0;strokeWidth=2;startSize=12;sourcePerimeterSpacing=12;startArrow=ERone;startFill=0;endFill=0;fillColor=none;exitX=1;exitY=0.5;exitDx=0;exitDy=0;edgeStyle=orthogonalEdgeStyle;entryX=1;entryY=0.5;entryDx=0;entryDy=0;" parent="1" source="SOTbb2QjoNHOY58TmjV8-317" target="Q2eQjhKr7wSCaX2ebzxs-11" edge="1">
          <mxGeometry relative="1" as="geometry">
            <mxPoint x="2588" y="268.0000000000002" as="sourcePoint" />
            <mxPoint x="3129.04" y="929" as="targetPoint" />
            <Array as="points">
              <mxPoint x="3185.04" y="1000" />
              <mxPoint x="3185.04" y="832" />
            </Array>
          </mxGeometry>
        </mxCell>
        <mxCell id="SOTbb2QjoNHOY58TmjV8-340" value="" style="endArrow=ERmany;html=1;rounded=0;strokeWidth=2;startSize=12;sourcePerimeterSpacing=12;startArrow=ERone;startFill=0;endFill=0;fillColor=none;exitX=0;exitY=0.5;exitDx=0;exitDy=0;entryX=1;entryY=0.5;entryDx=0;entryDy=0;edgeStyle=orthogonalEdgeStyle;" parent="1" source="Q2eQjhKr7wSCaX2ebzxs-5" target="SOTbb2QjoNHOY58TmjV8-95" edge="1">
          <mxGeometry relative="1" as="geometry">
            <mxPoint x="2890" y="435.5800000000004" as="sourcePoint" />
            <mxPoint x="3050" y="435.5800000000004" as="targetPoint" />
          </mxGeometry>
        </mxCell>
        <mxCell id="C3pVPxeQw2i0l3FB8gP5-13" value="Escolha_Clinica" style="shape=table;startSize=30;container=1;collapsible=1;childLayout=tableLayout;fixedRows=1;rowLines=0;fontStyle=1;align=center;resizeLast=1;html=1;fillColor=#d5e8d4;strokeColor=#82b366;" parent="1" vertex="1">
          <mxGeometry x="2988.04" y="450" width="180" height="90" as="geometry" />
        </mxCell>
        <mxCell id="C3pVPxeQw2i0l3FB8gP5-14" value="" style="shape=tableRow;horizontal=0;startSize=0;swimlaneHead=0;swimlaneBody=0;fillColor=none;collapsible=0;dropTarget=0;points=[[0,0.5],[1,0.5]];portConstraint=eastwest;top=0;left=0;right=0;bottom=1;strokeColor=default;" parent="C3pVPxeQw2i0l3FB8gP5-13" vertex="1">
          <mxGeometry y="30" width="180" height="30" as="geometry" />
        </mxCell>
        <mxCell id="C3pVPxeQw2i0l3FB8gP5-15" value="PK" style="shape=partialRectangle;connectable=0;fillColor=none;top=0;left=0;bottom=0;right=0;fontStyle=1;overflow=hidden;whiteSpace=wrap;html=1;strokeColor=default;" parent="C3pVPxeQw2i0l3FB8gP5-14" vertex="1">
          <mxGeometry width="30" height="30" as="geometry">
            <mxRectangle width="30" height="30" as="alternateBounds" />
          </mxGeometry>
        </mxCell>
        <mxCell id="C3pVPxeQw2i0l3FB8gP5-16" value="cli_id" style="shape=partialRectangle;connectable=0;fillColor=none;top=0;left=0;bottom=0;right=0;align=left;spacingLeft=6;fontStyle=5;overflow=hidden;whiteSpace=wrap;html=1;strokeColor=default;" parent="C3pVPxeQw2i0l3FB8gP5-14" vertex="1">
          <mxGeometry x="30" width="150" height="30" as="geometry">
            <mxRectangle width="150" height="30" as="alternateBounds" />
          </mxGeometry>
        </mxCell>
        <mxCell id="C3pVPxeQw2i0l3FB8gP5-17" value="" style="shape=tableRow;horizontal=0;startSize=0;swimlaneHead=0;swimlaneBody=0;fillColor=none;collapsible=0;dropTarget=0;points=[[0,0.5],[1,0.5]];portConstraint=eastwest;top=0;left=0;right=0;bottom=0;strokeColor=default;" parent="C3pVPxeQw2i0l3FB8gP5-13" vertex="1">
          <mxGeometry y="60" width="180" height="30" as="geometry" />
        </mxCell>
        <mxCell id="C3pVPxeQw2i0l3FB8gP5-18" value="" style="shape=partialRectangle;connectable=0;fillColor=none;top=0;left=0;bottom=0;right=0;editable=1;overflow=hidden;whiteSpace=wrap;html=1;strokeColor=default;" parent="C3pVPxeQw2i0l3FB8gP5-17" vertex="1">
          <mxGeometry width="30" height="30" as="geometry">
            <mxRectangle width="30" height="30" as="alternateBounds" />
          </mxGeometry>
        </mxCell>
        <mxCell id="C3pVPxeQw2i0l3FB8gP5-19" value="&lt;b&gt;cli_descricao&lt;/b&gt;" style="shape=partialRectangle;connectable=0;fillColor=none;top=0;left=0;bottom=0;right=0;align=left;spacingLeft=6;overflow=hidden;whiteSpace=wrap;html=1;strokeColor=default;" parent="C3pVPxeQw2i0l3FB8gP5-17" vertex="1">
          <mxGeometry x="30" width="150" height="30" as="geometry">
            <mxRectangle width="150" height="30" as="alternateBounds" />
          </mxGeometry>
        </mxCell>
        <mxCell id="C3pVPxeQw2i0l3FB8gP5-26" value="Carater" style="shape=table;startSize=30;container=1;collapsible=1;childLayout=tableLayout;fixedRows=1;rowLines=0;fontStyle=1;align=center;resizeLast=1;html=1;fillColor=#d5e8d4;strokeColor=#82b366;" parent="1" vertex="1">
          <mxGeometry x="1784" y="764" width="180" height="90" as="geometry" />
        </mxCell>
        <mxCell id="C3pVPxeQw2i0l3FB8gP5-27" value="" style="shape=tableRow;horizontal=0;startSize=0;swimlaneHead=0;swimlaneBody=0;fillColor=none;collapsible=0;dropTarget=0;points=[[0,0.5],[1,0.5]];portConstraint=eastwest;top=0;left=0;right=0;bottom=1;strokeColor=default;" parent="C3pVPxeQw2i0l3FB8gP5-26" vertex="1">
          <mxGeometry y="30" width="180" height="30" as="geometry" />
        </mxCell>
        <mxCell id="C3pVPxeQw2i0l3FB8gP5-28" value="PK" style="shape=partialRectangle;connectable=0;fillColor=none;top=0;left=0;bottom=0;right=0;fontStyle=1;overflow=hidden;whiteSpace=wrap;html=1;strokeColor=default;" parent="C3pVPxeQw2i0l3FB8gP5-27" vertex="1">
          <mxGeometry width="30" height="30" as="geometry">
            <mxRectangle width="30" height="30" as="alternateBounds" />
          </mxGeometry>
        </mxCell>
        <mxCell id="C3pVPxeQw2i0l3FB8gP5-29" value="car_id" style="shape=partialRectangle;connectable=0;fillColor=none;top=0;left=0;bottom=0;right=0;align=left;spacingLeft=6;fontStyle=5;overflow=hidden;whiteSpace=wrap;html=1;strokeColor=default;" parent="C3pVPxeQw2i0l3FB8gP5-27" vertex="1">
          <mxGeometry x="30" width="150" height="30" as="geometry">
            <mxRectangle width="150" height="30" as="alternateBounds" />
          </mxGeometry>
        </mxCell>
        <mxCell id="C3pVPxeQw2i0l3FB8gP5-30" value="" style="shape=tableRow;horizontal=0;startSize=0;swimlaneHead=0;swimlaneBody=0;fillColor=none;collapsible=0;dropTarget=0;points=[[0,0.5],[1,0.5]];portConstraint=eastwest;top=0;left=0;right=0;bottom=0;strokeColor=default;" parent="C3pVPxeQw2i0l3FB8gP5-26" vertex="1">
          <mxGeometry y="60" width="180" height="30" as="geometry" />
        </mxCell>
        <mxCell id="C3pVPxeQw2i0l3FB8gP5-31" value="" style="shape=partialRectangle;connectable=0;fillColor=none;top=0;left=0;bottom=0;right=0;editable=1;overflow=hidden;whiteSpace=wrap;html=1;strokeColor=default;" parent="C3pVPxeQw2i0l3FB8gP5-30" vertex="1">
          <mxGeometry width="30" height="30" as="geometry">
            <mxRectangle width="30" height="30" as="alternateBounds" />
          </mxGeometry>
        </mxCell>
        <mxCell id="C3pVPxeQw2i0l3FB8gP5-32" value="car_tipo" style="shape=partialRectangle;connectable=0;fillColor=none;top=0;left=0;bottom=0;right=0;align=left;spacingLeft=6;overflow=hidden;whiteSpace=wrap;html=1;strokeColor=default;" parent="C3pVPxeQw2i0l3FB8gP5-30" vertex="1">
          <mxGeometry x="30" width="150" height="30" as="geometry">
            <mxRectangle width="150" height="30" as="alternateBounds" />
          </mxGeometry>
        </mxCell>
        <mxCell id="C3pVPxeQw2i0l3FB8gP5-40" value="" style="endArrow=ERmany;html=1;rounded=0;strokeWidth=2;startSize=12;sourcePerimeterSpacing=0;startArrow=ERone;startFill=0;endFill=0;fillColor=none;exitX=1;exitY=0.5;exitDx=0;exitDy=0;entryX=0;entryY=0.5;entryDx=0;entryDy=0;edgeStyle=orthogonalEdgeStyle;strokeColor=default;endSize=12;" parent="1" source="C3pVPxeQw2i0l3FB8gP5-27" target="C3pVPxeQw2i0l3FB8gP5-7" edge="1">
          <mxGeometry relative="1" as="geometry">
            <mxPoint x="1750" y="-254" as="sourcePoint" />
            <mxPoint x="2380" y="456" as="targetPoint" />
            <Array as="points">
              <mxPoint x="2079" y="809" />
              <mxPoint x="2079" y="391" />
            </Array>
          </mxGeometry>
        </mxCell>
        <mxCell id="C3pVPxeQw2i0l3FB8gP5-43" value="" style="endArrow=ERone;html=1;rounded=0;startSize=12;endSize=12;sourcePerimeterSpacing=12;strokeWidth=2;startArrow=ERmany;startFill=0;entryX=1;entryY=0.5;entryDx=0;entryDy=0;exitX=1;exitY=0.5;exitDx=0;exitDy=0;edgeStyle=orthogonalEdgeStyle;endFill=0;fillColor=none;" parent="1" source="SOTbb2QjoNHOY58TmjV8-85" target="SOTbb2QjoNHOY58TmjV8-176" edge="1">
          <mxGeometry relative="1" as="geometry">
            <mxPoint x="1760" y="576" as="sourcePoint" />
            <mxPoint x="1770" y="846" as="targetPoint" />
            <Array as="points">
              <mxPoint x="2597" y="421" />
              <mxPoint x="2597" y="1001" />
            </Array>
          </mxGeometry>
        </mxCell>
        <mxCell id="C3pVPxeQw2i0l3FB8gP5-45" value="" style="endArrow=ERmany;html=1;rounded=0;strokeWidth=2;startSize=12;sourcePerimeterSpacing=0;startArrow=ERone;startFill=0;endFill=0;fillColor=none;entryX=1;entryY=0.5;entryDx=0;entryDy=0;exitX=0;exitY=0.5;exitDx=0;exitDy=0;edgeStyle=orthogonalEdgeStyle;endSize=12;" parent="1" source="C3pVPxeQw2i0l3FB8gP5-14" target="C3pVPxeQw2i0l3FB8gP5-4" edge="1">
          <mxGeometry relative="1" as="geometry">
            <mxPoint x="3080" y="476" as="sourcePoint" />
            <mxPoint x="3340" y="1086" as="targetPoint" />
          </mxGeometry>
        </mxCell>
        <mxCell id="hAWk6UTnpg3BsMGyecMC-10" value="Instituicao" style="shape=table;startSize=30;container=1;collapsible=1;childLayout=tableLayout;fixedRows=1;rowLines=0;fontStyle=1;align=center;resizeLast=1;html=1;fillColor=#d5e8d4;strokeColor=#82b366;" parent="1" vertex="1">
          <mxGeometry x="1780" y="903" width="180" height="180" as="geometry" />
        </mxCell>
        <mxCell id="hAWk6UTnpg3BsMGyecMC-11" value="" style="shape=tableRow;horizontal=0;startSize=0;swimlaneHead=0;swimlaneBody=0;fillColor=none;collapsible=0;dropTarget=0;points=[[0,0.5],[1,0.5]];portConstraint=eastwest;top=0;left=0;right=0;bottom=1;" parent="hAWk6UTnpg3BsMGyecMC-10" vertex="1">
          <mxGeometry y="30" width="180" height="30" as="geometry" />
        </mxCell>
        <mxCell id="hAWk6UTnpg3BsMGyecMC-12" value="PK" style="shape=partialRectangle;connectable=0;fillColor=none;top=0;left=0;bottom=0;right=0;fontStyle=1;overflow=hidden;whiteSpace=wrap;html=1;" parent="hAWk6UTnpg3BsMGyecMC-11" vertex="1">
          <mxGeometry width="30" height="30" as="geometry">
            <mxRectangle width="30" height="30" as="alternateBounds" />
          </mxGeometry>
        </mxCell>
        <mxCell id="hAWk6UTnpg3BsMGyecMC-13" value="inst_id" style="shape=partialRectangle;connectable=0;fillColor=none;top=0;left=0;bottom=0;right=0;align=left;spacingLeft=6;fontStyle=5;overflow=hidden;whiteSpace=wrap;html=1;" parent="hAWk6UTnpg3BsMGyecMC-11" vertex="1">
          <mxGeometry x="30" width="150" height="30" as="geometry">
            <mxRectangle width="150" height="30" as="alternateBounds" />
          </mxGeometry>
        </mxCell>
        <mxCell id="hAWk6UTnpg3BsMGyecMC-14" value="" style="shape=tableRow;horizontal=0;startSize=0;swimlaneHead=0;swimlaneBody=0;fillColor=none;collapsible=0;dropTarget=0;points=[[0,0.5],[1,0.5]];portConstraint=eastwest;top=0;left=0;right=0;bottom=0;" parent="hAWk6UTnpg3BsMGyecMC-10" vertex="1">
          <mxGeometry y="60" width="180" height="30" as="geometry" />
        </mxCell>
        <mxCell id="hAWk6UTnpg3BsMGyecMC-15" value="" style="shape=partialRectangle;connectable=0;fillColor=none;top=0;left=0;bottom=0;right=0;editable=1;overflow=hidden;whiteSpace=wrap;html=1;" parent="hAWk6UTnpg3BsMGyecMC-14" vertex="1">
          <mxGeometry width="30" height="30" as="geometry">
            <mxRectangle width="30" height="30" as="alternateBounds" />
          </mxGeometry>
        </mxCell>
        <mxCell id="hAWk6UTnpg3BsMGyecMC-16" value="inst_nome" style="shape=partialRectangle;connectable=0;fillColor=none;top=0;left=0;bottom=0;right=0;align=left;spacingLeft=6;overflow=hidden;whiteSpace=wrap;html=1;fontStyle=1" parent="hAWk6UTnpg3BsMGyecMC-14" vertex="1">
          <mxGeometry x="30" width="150" height="30" as="geometry">
            <mxRectangle width="150" height="30" as="alternateBounds" />
          </mxGeometry>
        </mxCell>
        <mxCell id="hAWk6UTnpg3BsMGyecMC-17" value="" style="shape=tableRow;horizontal=0;startSize=0;swimlaneHead=0;swimlaneBody=0;fillColor=none;collapsible=0;dropTarget=0;points=[[0,0.5],[1,0.5]];portConstraint=eastwest;top=0;left=0;right=0;bottom=0;" parent="hAWk6UTnpg3BsMGyecMC-10" vertex="1">
          <mxGeometry y="90" width="180" height="30" as="geometry" />
        </mxCell>
        <mxCell id="hAWk6UTnpg3BsMGyecMC-18" value="" style="shape=partialRectangle;connectable=0;fillColor=none;top=0;left=0;bottom=0;right=0;editable=1;overflow=hidden;whiteSpace=wrap;html=1;" parent="hAWk6UTnpg3BsMGyecMC-17" vertex="1">
          <mxGeometry width="30" height="30" as="geometry">
            <mxRectangle width="30" height="30" as="alternateBounds" />
          </mxGeometry>
        </mxCell>
        <mxCell id="hAWk6UTnpg3BsMGyecMC-19" value="inst_razao_social" style="shape=partialRectangle;connectable=0;fillColor=none;top=0;left=0;bottom=0;right=0;align=left;spacingLeft=6;overflow=hidden;whiteSpace=wrap;html=1;fontStyle=1" parent="hAWk6UTnpg3BsMGyecMC-17" vertex="1">
          <mxGeometry x="30" width="150" height="30" as="geometry">
            <mxRectangle width="150" height="30" as="alternateBounds" />
          </mxGeometry>
        </mxCell>
        <mxCell id="hAWk6UTnpg3BsMGyecMC-20" value="" style="shape=tableRow;horizontal=0;startSize=0;swimlaneHead=0;swimlaneBody=0;fillColor=none;collapsible=0;dropTarget=0;points=[[0,0.5],[1,0.5]];portConstraint=eastwest;top=0;left=0;right=0;bottom=0;" parent="hAWk6UTnpg3BsMGyecMC-10" vertex="1">
          <mxGeometry y="120" width="180" height="30" as="geometry" />
        </mxCell>
        <mxCell id="hAWk6UTnpg3BsMGyecMC-21" value="" style="shape=partialRectangle;connectable=0;fillColor=none;top=0;left=0;bottom=0;right=0;editable=1;overflow=hidden;whiteSpace=wrap;html=1;" parent="hAWk6UTnpg3BsMGyecMC-20" vertex="1">
          <mxGeometry width="30" height="30" as="geometry">
            <mxRectangle width="30" height="30" as="alternateBounds" />
          </mxGeometry>
        </mxCell>
        <mxCell id="hAWk6UTnpg3BsMGyecMC-22" value="inst_cnes" style="shape=partialRectangle;connectable=0;fillColor=none;top=0;left=0;bottom=0;right=0;align=left;spacingLeft=6;overflow=hidden;whiteSpace=wrap;html=1;fontStyle=1" parent="hAWk6UTnpg3BsMGyecMC-20" vertex="1">
          <mxGeometry x="30" width="150" height="30" as="geometry">
            <mxRectangle width="150" height="30" as="alternateBounds" />
          </mxGeometry>
        </mxCell>
        <mxCell id="hAWk6UTnpg3BsMGyecMC-23" value="" style="shape=tableRow;horizontal=0;startSize=0;swimlaneHead=0;swimlaneBody=0;fillColor=none;collapsible=0;dropTarget=0;points=[[0,0.5],[1,0.5]];portConstraint=eastwest;top=0;left=0;right=0;bottom=0;" parent="hAWk6UTnpg3BsMGyecMC-10" vertex="1">
          <mxGeometry y="150" width="180" height="30" as="geometry" />
        </mxCell>
        <mxCell id="hAWk6UTnpg3BsMGyecMC-24" value="" style="shape=partialRectangle;connectable=0;fillColor=none;top=0;left=0;bottom=0;right=0;editable=1;overflow=hidden;" parent="hAWk6UTnpg3BsMGyecMC-23" vertex="1">
          <mxGeometry width="30" height="30" as="geometry">
            <mxRectangle width="30" height="30" as="alternateBounds" />
          </mxGeometry>
        </mxCell>
        <mxCell id="hAWk6UTnpg3BsMGyecMC-25" value="inst_cnpj" style="shape=partialRectangle;connectable=0;fillColor=none;top=0;left=0;bottom=0;right=0;align=left;spacingLeft=6;overflow=hidden;fontStyle=1" parent="hAWk6UTnpg3BsMGyecMC-23" vertex="1">
          <mxGeometry x="30" width="150" height="30" as="geometry">
            <mxRectangle width="150" height="30" as="alternateBounds" />
          </mxGeometry>
        </mxCell>
        <mxCell id="hAWk6UTnpg3BsMGyecMC-26" value="" style="endArrow=ERone;html=1;rounded=0;startSize=12;endSize=12;sourcePerimeterSpacing=12;strokeWidth=2;startArrow=ERmany;startFill=0;edgeStyle=orthogonalEdgeStyle;endFill=0;entryX=1;entryY=0.5;entryDx=0;entryDy=0;fillColor=none;exitX=0;exitY=0.5;exitDx=0;exitDy=0;" parent="1" source="SOTbb2QjoNHOY58TmjV8-26" target="hAWk6UTnpg3BsMGyecMC-11" edge="1">
          <mxGeometry relative="1" as="geometry">
            <mxPoint x="2103" y="1209" as="sourcePoint" />
            <mxPoint x="2001" y="1118" as="targetPoint" />
          </mxGeometry>
        </mxCell>
        <mxCell id="Q2eQjhKr7wSCaX2ebzxs-1" value="Procedimento_Cids" style="shape=table;startSize=30;container=1;collapsible=1;childLayout=tableLayout;fixedRows=1;rowLines=0;fontStyle=1;align=center;resizeLast=1;html=1;whiteSpace=wrap;fillColor=#d5e8d4;strokeColor=#82b366;" parent="1" vertex="1">
          <mxGeometry x="2988.04" y="727" width="180" height="120" as="geometry" />
        </mxCell>
        <mxCell id="Q2eQjhKr7wSCaX2ebzxs-5" value="" style="shape=tableRow;horizontal=0;startSize=0;swimlaneHead=0;swimlaneBody=0;fillColor=none;collapsible=0;dropTarget=0;points=[[0,0.5],[1,0.5]];portConstraint=eastwest;top=0;left=0;right=0;bottom=1;html=1;" parent="Q2eQjhKr7wSCaX2ebzxs-1" vertex="1">
          <mxGeometry y="30" width="180" height="30" as="geometry" />
        </mxCell>
        <mxCell id="Q2eQjhKr7wSCaX2ebzxs-6" value="PK" style="shape=partialRectangle;connectable=0;fillColor=none;top=0;left=0;bottom=0;right=0;fontStyle=1;overflow=hidden;html=1;whiteSpace=wrap;" parent="Q2eQjhKr7wSCaX2ebzxs-5" vertex="1">
          <mxGeometry width="32.3793103448279" height="30" as="geometry">
            <mxRectangle width="32.3793103448279" height="30" as="alternateBounds" />
          </mxGeometry>
        </mxCell>
        <mxCell id="Q2eQjhKr7wSCaX2ebzxs-7" value="proc_cid_id" style="shape=partialRectangle;connectable=0;fillColor=none;top=0;left=0;bottom=0;right=0;align=left;spacingLeft=6;fontStyle=5;overflow=hidden;html=1;whiteSpace=wrap;" parent="Q2eQjhKr7wSCaX2ebzxs-5" vertex="1">
          <mxGeometry x="32.3793103448279" width="147.6206896551721" height="30" as="geometry">
            <mxRectangle width="147.6206896551721" height="30" as="alternateBounds" />
          </mxGeometry>
        </mxCell>
        <mxCell id="Q2eQjhKr7wSCaX2ebzxs-8" value="" style="shape=tableRow;horizontal=0;startSize=0;swimlaneHead=0;swimlaneBody=0;fillColor=none;collapsible=0;dropTarget=0;points=[[0,0.5],[1,0.5]];portConstraint=eastwest;top=0;left=0;right=0;bottom=0;html=1;" parent="Q2eQjhKr7wSCaX2ebzxs-1" vertex="1">
          <mxGeometry y="60" width="180" height="30" as="geometry" />
        </mxCell>
        <mxCell id="Q2eQjhKr7wSCaX2ebzxs-9" value="" style="shape=partialRectangle;connectable=0;fillColor=none;top=0;left=0;bottom=0;right=0;editable=1;overflow=hidden;html=1;whiteSpace=wrap;" parent="Q2eQjhKr7wSCaX2ebzxs-8" vertex="1">
          <mxGeometry width="32.3793103448279" height="30" as="geometry">
            <mxRectangle width="32.3793103448279" height="30" as="alternateBounds" />
          </mxGeometry>
        </mxCell>
        <mxCell id="Q2eQjhKr7wSCaX2ebzxs-10" value="&lt;span style=&quot;font-weight: 700;&quot;&gt;pro_id&lt;/span&gt;" style="shape=partialRectangle;connectable=0;fillColor=none;top=0;left=0;bottom=0;right=0;align=left;spacingLeft=6;overflow=hidden;html=1;whiteSpace=wrap;" parent="Q2eQjhKr7wSCaX2ebzxs-8" vertex="1">
          <mxGeometry x="32.3793103448279" width="147.6206896551721" height="30" as="geometry">
            <mxRectangle width="147.6206896551721" height="30" as="alternateBounds" />
          </mxGeometry>
        </mxCell>
        <mxCell id="Q2eQjhKr7wSCaX2ebzxs-11" value="" style="shape=tableRow;horizontal=0;startSize=0;swimlaneHead=0;swimlaneBody=0;fillColor=none;collapsible=0;dropTarget=0;points=[[0,0.5],[1,0.5]];portConstraint=eastwest;top=0;left=0;right=0;bottom=0;html=1;" parent="Q2eQjhKr7wSCaX2ebzxs-1" vertex="1">
          <mxGeometry y="90" width="180" height="30" as="geometry" />
        </mxCell>
        <mxCell id="Q2eQjhKr7wSCaX2ebzxs-12" value="" style="shape=partialRectangle;connectable=0;fillColor=none;top=0;left=0;bottom=0;right=0;editable=1;overflow=hidden;html=1;whiteSpace=wrap;" parent="Q2eQjhKr7wSCaX2ebzxs-11" vertex="1">
          <mxGeometry width="32.3793103448279" height="30" as="geometry">
            <mxRectangle width="32.3793103448279" height="30" as="alternateBounds" />
          </mxGeometry>
        </mxCell>
        <mxCell id="Q2eQjhKr7wSCaX2ebzxs-13" value="&lt;span style=&quot;font-weight: 700;&quot;&gt;cid_id&lt;/span&gt;" style="shape=partialRectangle;connectable=0;fillColor=none;top=0;left=0;bottom=0;right=0;align=left;spacingLeft=6;overflow=hidden;html=1;whiteSpace=wrap;" parent="Q2eQjhKr7wSCaX2ebzxs-11" vertex="1">
          <mxGeometry x="32.3793103448279" width="147.6206896551721" height="30" as="geometry">
            <mxRectangle width="147.6206896551721" height="30" as="alternateBounds" />
          </mxGeometry>
        </mxCell>
        <mxCell id="Q2eQjhKr7wSCaX2ebzxs-14" value="" style="endArrow=ERmany;html=1;rounded=0;strokeWidth=2;startSize=12;sourcePerimeterSpacing=12;startArrow=ERone;startFill=0;endFill=0;fillColor=none;exitX=1;exitY=0.5;exitDx=0;exitDy=0;edgeStyle=orthogonalEdgeStyle;entryX=1;entryY=0.5;entryDx=0;entryDy=0;" parent="1" source="SOTbb2QjoNHOY58TmjV8-327" target="Q2eQjhKr7wSCaX2ebzxs-8" edge="1">
          <mxGeometry relative="1" as="geometry">
            <mxPoint x="3006.04" y="1102" as="sourcePoint" />
            <mxPoint x="3168.04" y="772" as="targetPoint" />
            <Array as="points">
              <mxPoint x="3187.04" y="613" />
              <mxPoint x="3187.04" y="802" />
            </Array>
          </mxGeometry>
        </mxCell>
        <mxCell id="Q2eQjhKr7wSCaX2ebzxs-22" value="" style="endArrow=ERone;html=1;rounded=0;startSize=12;endSize=12;sourcePerimeterSpacing=12;strokeWidth=2;startArrow=ERmany;startFill=0;entryX=1;entryY=0.5;entryDx=0;entryDy=0;exitX=0;exitY=0.5;exitDx=0;exitDy=0;edgeStyle=orthogonalEdgeStyle;endFill=0;fillColor=none;" parent="1" source="SOTbb2QjoNHOY58TmjV8-136" target="SOTbb2QjoNHOY58TmjV8-2" edge="1">
          <mxGeometry relative="1" as="geometry">
            <mxPoint x="2453" y="814" as="sourcePoint" />
            <mxPoint x="2453" y="1039" as="targetPoint" />
          </mxGeometry>
        </mxCell>
        <mxCell id="Q2eQjhKr7wSCaX2ebzxs-23" value="" style="endArrow=ERone;html=1;rounded=0;startSize=12;endSize=12;sourcePerimeterSpacing=12;strokeWidth=2;startArrow=ERmany;startFill=0;entryX=1;entryY=0.5;entryDx=0;entryDy=0;exitX=0;exitY=0.5;exitDx=0;exitDy=0;edgeStyle=orthogonalEdgeStyle;endFill=0;fillColor=none;" parent="1" source="SOTbb2QjoNHOY58TmjV8-139" target="SOTbb2QjoNHOY58TmjV8-2" edge="1">
          <mxGeometry relative="1" as="geometry">
            <mxPoint x="2471" y="913" as="sourcePoint" />
            <mxPoint x="2383" y="1061" as="targetPoint" />
          </mxGeometry>
        </mxCell>
      </root>
    </mxGraphModel>
  </diagram>
</mxfile>
